<?xml version="1.0" encoding="utf-8"?>
<svg version="1.1" xmlns:xlink="http://www.w3.org/1999/xlink" width="331px" height="104px" xmlns="http://www.w3.org/2000/svg">
  <g transform="matrix(1 0 0 1 -1803 -2900 )">
    <path d="M 1804 2904  A 3 3 0 0 1 1807 2901 L 2130 2901  A 3 3 0 0 1 2133 2904 L 2133 3000  A 3 3 0 0 1 2130 3003 L 1807 3003  A 3 3 0 0 1 1804 3000 L 1804 2904  Z " fill-rule="nonzero" fill="#000000" stroke="none" fill-opacity="0.0196078431372549" />
    <path d="M 1803.5 2904  A 3.5 3.5 0 0 1 1807 2900.5 L 2130 2900.5  A 3.5 3.5 0 0 1 2133.5 2904 L 2133.5 3000  A 3.5 3.5 0 0 1 2130 3003.5 L 1807 3003.5  A 3.5 3.5 0 0 1 1803.5 3000 L 1803.5 2904  Z " stroke-width="1" stroke-dasharray="9,4" stroke="#d9d9d9" fill="none" stroke-dashoffset="0.5" />
  </g>
</svg>