<?xml version="1.0" encoding="utf-8"?>
<svg version="1.1" xmlns:xlink="http://www.w3.org/1999/xlink" width="12px" height="12px" xmlns="http://www.w3.org/2000/svg">
  <g transform="matrix(1 0 0 1 -2423 -1242 )">
    <path d="M 2429 1242  C 2432.36 1242  2435 1244.64  2435 1248  C 2435 1251.36  2432.36 1254  2429 1254  C 2425.64 1254  2423 1251.36  2423 1248  C 2423 1244.64  2425.64 1242  2429 1242  Z " fill-rule="nonzero" fill="#ffffff" stroke="none" />
    <path d="M 2429 1242.5  C 2432.08 1242.5  2434.5 1244.92  2434.5 1248  C 2434.5 1251.08  2432.08 1253.5  2429 1253.5  C 2425.92 1253.5  2423.5 1251.08  2423.5 1248  C 2423.5 1244.92  2425.92 1242.5  2429 1242.5  Z " stroke-width="1" stroke="#409eff" fill="none" />
  </g>
</svg>