<?xml version="1.0" encoding="utf-8"?>
<svg version="1.1" xmlns:xlink="http://www.w3.org/1999/xlink" width="839px" height="142px" xmlns="http://www.w3.org/2000/svg">
  <g transform="matrix(1 0 0 1 -2422 -2684 )">
    <path d="M 2423 2688  A 3 3 0 0 1 2426 2685 L 3257 2685  A 3 3 0 0 1 3260 2688 L 3260 2822  A 3 3 0 0 1 3257 2825 L 2426 2825  A 3 3 0 0 1 2423 2822 L 2423 2688  Z " fill-rule="nonzero" fill="#000000" stroke="none" fill-opacity="0.0196078431372549" />
    <path d="M 2422.5 2688  A 3.5 3.5 0 0 1 2426 2684.5 L 3257 2684.5  A 3.5 3.5 0 0 1 3260.5 2688 L 3260.5 2822  A 3.5 3.5 0 0 1 3257 2825.5 L 2426 2825.5  A 3.5 3.5 0 0 1 2422.5 2822 L 2422.5 2688  Z " stroke-width="1" stroke-dasharray="9,4" stroke="#d9d9d9" fill="none" stroke-dashoffset="0.5" />
  </g>
</svg>