<?xml version="1.0" encoding="utf-8"?>
<svg version="1.1" xmlns:xlink="http://www.w3.org/1999/xlink" width="14px" height="14px" xmlns="http://www.w3.org/2000/svg">
  <g transform="matrix(1 0 0 1 -2122 -126 )">
    <path d="M 2129 127  C 2132.36 127  2135 129.64  2135 133  C 2135 136.36  2132.36 139  2129 139  C 2125.64 139  2123 136.36  2123 133  C 2123 129.64  2125.64 127  2129 127  Z " fill-rule="nonzero" fill="#0d0d51" stroke="none" />
    <path d="M 2129 127  C 2132.36 127  2135 129.64  2135 133  C 2135 136.36  2132.36 139  2129 139  C 2125.64 139  2123 136.36  2123 133  C 2123 129.64  2125.64 127  2129 127  Z " stroke-width="2" stroke="#ffffff" fill="none" />
  </g>
</svg>