<?xml version="1.0" encoding="utf-8"?>
<svg version="1.1" xmlns:xlink="http://www.w3.org/1999/xlink" width="70px" height="25px" xmlns="http://www.w3.org/2000/svg">
  <g transform="matrix(1 0 0 1 -1819 -493 )">
    <path d="M 1820 501  A 7 7 0 0 1 1827 494 L 1881 494  A 7 7 0 0 1 1888 501 L 1888 510  A 7 7 0 0 1 1881 517 L 1827 517  A 7 7 0 0 1 1820 510 L 1820 501  Z " fill-rule="nonzero" fill="#81d3f8" stroke="none" fill-opacity="0.168627450980392" />
    <path d="M 1819.5 501  A 7.5 7.5 0 0 1 1827 493.5 L 1881 493.5  A 7.5 7.5 0 0 1 1888.5 501 L 1888.5 510  A 7.5 7.5 0 0 1 1881 517.5 L 1827 517.5  A 7.5 7.5 0 0 1 1819.5 510 L 1819.5 501  Z " stroke-width="1" stroke="#0079fe" fill="none" stroke-opacity="0.654901960784314" />
  </g>
</svg>