<?xml version="1.0" encoding="utf-8"?>
<svg version="1.1" xmlns:xlink="http://www.w3.org/1999/xlink" width="100px" height="100px" xmlns="http://www.w3.org/2000/svg">
  <g transform="matrix(1 0 0 1 -615 -689 )">
    <path d="M 615 689  L 715 689  L 715 789  L 615 789  L 615 689  " fill-rule="nonzero" fill="#cccccc" stroke="none" />
    <path d="M 622 696  L 708 696  L 708 782  L 622 782  L 622 696  " fill-rule="nonzero" fill="#ffffff" stroke="none" />
    <path d="M 674.5 719  C 670.3 719  667 715.7  667 711.5  C 667 707.3  670.3 704  674.5 704  C 678.7 704  682 707.3  682 711.5  C 682 715.7  678.7 719  674.5 719  " fill-rule="nonzero" fill="#cccccc" stroke="none" />
    <path d="M 625 780  L 625 735.45  L 645.25 715.2  L 673.6 731.4  L 689.8 727.35  L 706 731.4  L 706 780  L 625 780  " fill-rule="nonzero" fill="#169bd5" stroke="none" />
  </g>
</svg>