<?xml version="1.0" encoding="utf-8"?>
<svg version="1.1" xmlns:xlink="http://www.w3.org/1999/xlink" width="576px" height="280px" xmlns="http://www.w3.org/2000/svg">
  <g transform="matrix(1 0 0 1 -3148 -538 )">
    <path d="M 3148 538  L 3724 538  L 3724 818  L 3148 818  L 3148 538  " fill-rule="nonzero" fill="#cccccc" stroke="none" />
    <path d="M 3168 558  L 3704 558  L 3704 798  L 3168 798  L 3168 558  " fill-rule="nonzero" fill="#ffffff" stroke="none" />
    <path d="M 3468.52 622  C 3456.76 622  3447.52 612.76  3447.52 601  C 3447.52 589.24  3456.76 580  3468.52 580  C 3480.28 580  3489.52 589.24  3489.52 601  C 3489.52 612.76  3480.28 622  3468.52 622  " fill-rule="nonzero" fill="#cccccc" stroke="none" />
    <path d="M 3175 791  L 3175 666.7  L 3305.5 610.2  L 3488.2 725.083333333333  L 3592.6 644.1  L 3697 725.083333333333  L 3697 791  L 3175 791  " fill-rule="nonzero" fill="#169bd5" stroke="none" />
  </g>
</svg>