<?xml version="1.0" encoding="utf-8"?>
<svg version="1.1" xmlns:xlink="http://www.w3.org/1999/xlink" width="576px" height="280px" xmlns="http://www.w3.org/2000/svg">
  <g transform="matrix(1 0 0 1 -3172 -828 )">
    <path d="M 3172 828  L 3748 828  L 3748 1108  L 3172 1108  L 3172 828  " fill-rule="nonzero" fill="#cccccc" stroke="none" />
    <path d="M 3192 848  L 3728 848  L 3728 1088  L 3192 1088  L 3192 848  " fill-rule="nonzero" fill="#ffffff" stroke="none" />
    <path d="M 3492.52 912  C 3480.76 912  3471.52 902.76  3471.52 891  C 3471.52 879.24  3480.76 870  3492.52 870  C 3504.28 870  3513.52 879.24  3513.52 891  C 3513.52 902.76  3504.28 912  3492.52 912  " fill-rule="nonzero" fill="#cccccc" stroke="none" />
    <path d="M 3199 1081  L 3199 956.7  L 3329.5 900.2  L 3512.2 1015.08333333333  L 3616.6 934.1  L 3721 1015.08333333333  L 3721 1081  L 3199 1081  " fill-rule="nonzero" fill="#169bd5" stroke="none" />
  </g>
</svg>