<?xml version="1.0" encoding="utf-8"?>
<svg version="1.1" xmlns:xlink="http://www.w3.org/1999/xlink" width="100px" height="100px" xmlns="http://www.w3.org/2000/svg">
  <g transform="matrix(1 0 0 1 -639 -979 )">
    <path d="M 639 979  L 739 979  L 739 1079  L 639 1079  L 639 979  " fill-rule="nonzero" fill="#cccccc" stroke="none" />
    <path d="M 646 986  L 732 986  L 732 1072  L 646 1072  L 646 986  " fill-rule="nonzero" fill="#ffffff" stroke="none" />
    <path d="M 698.5 1009  C 694.3 1009  691 1005.7  691 1001.5  C 691 997.3  694.3 994  698.5 994  C 702.7 994  706 997.3  706 1001.5  C 706 1005.7  702.7 1009  698.5 1009  " fill-rule="nonzero" fill="#cccccc" stroke="none" />
    <path d="M 649 1070  L 649 1025.45  L 669.25 1005.2  L 697.6 1021.4  L 713.8 1017.35  L 730 1021.4  L 730 1070  L 649 1070  " fill-rule="nonzero" fill="#169bd5" stroke="none" />
  </g>
</svg>