<?xml version="1.0" encoding="utf-8"?>
<svg version="1.1" xmlns:xlink="http://www.w3.org/1999/xlink" width="70px" height="25px" xmlns="http://www.w3.org/2000/svg">
  <g transform="matrix(1 0 0 1 -213 -317 )">
    <path d="M 214 325  A 7 7 0 0 1 221 318 L 275 318  A 7 7 0 0 1 282 325 L 282 334  A 7 7 0 0 1 275 341 L 221 341  A 7 7 0 0 1 214 334 L 214 325  Z " fill-rule="nonzero" fill="#0079fe" stroke="none" />
    <path d="M 213.5 325  A 7.5 7.5 0 0 1 221 317.5 L 275 317.5  A 7.5 7.5 0 0 1 282.5 325 L 282.5 334  A 7.5 7.5 0 0 1 275 341.5 L 221 341.5  A 7.5 7.5 0 0 1 213.5 334 L 213.5 325  Z " stroke-width="1" stroke="#0079fe" fill="none" stroke-opacity="0.654901960784314" />
  </g>
</svg>