<?xml version="1.0" encoding="utf-8"?>
<svg version="1.1" xmlns:xlink="http://www.w3.org/1999/xlink" width="80px" height="30px" xmlns="http://www.w3.org/2000/svg">
  <g transform="matrix(1 0 0 1 -1897 -1200 )">
    <path d="M 1897.5 1203  A 2.5 2.5 0 0 1 1900 1200.5 L 1974 1200.5  A 2.5 2.5 0 0 1 1976.5 1203 L 1976.5 1227  A 2.5 2.5 0 0 1 1974 1229.5 L 1900 1229.5  A 2.5 2.5 0 0 1 1897.5 1227 L 1897.5 1203  Z " fill-rule="nonzero" fill="#f9f9f9" stroke="none" />
    <path d="M 1897.5 1203  A 2.5 2.5 0 0 1 1900 1200.5 L 1974 1200.5  A 2.5 2.5 0 0 1 1976.5 1203 L 1976.5 1227  A 2.5 2.5 0 0 1 1974 1229.5 L 1900 1229.5  A 2.5 2.5 0 0 1 1897.5 1227 L 1897.5 1203  Z " stroke-width="1" stroke="#e4e4e4" fill="none" />
  </g>
</svg>