<?xml version="1.0" encoding="utf-8"?>
<svg version="1.1" xmlns:xlink="http://www.w3.org/1999/xlink" width="47px" height="35px" xmlns="http://www.w3.org/2000/svg">
  <g transform="matrix(1 0 0 1 -1641 -247 )">
    <path d="M 1641 247  L 1688 247  L 1688 282  L 1641 282  L 1641 247  " fill-rule="nonzero" fill="#cccccc" stroke="none" />
    <path d="M 1643 249  L 1686 249  L 1686 280  L 1643 280  L 1643 249  " fill-rule="nonzero" fill="#ffffff" stroke="none" />
    <path d="M 1668.065 257.5  C 1666.595 257.5  1665.44 256.345  1665.44 254.875  C 1665.44 253.405  1666.595 252.25  1668.065 252.25  C 1669.535 252.25  1670.69 253.405  1670.69 254.875  C 1670.69 256.345  1669.535 257.5  1668.065 257.5  " fill-rule="nonzero" fill="#cccccc" stroke="none" />
    <path d="M 1644 279  L 1644 263.05  L 1654.25 255.8  L 1668.6 266.042553191489  L 1676.8 260.15  L 1685 266.042553191489  L 1685 279  L 1644 279  " fill-rule="nonzero" fill="#169bd5" stroke="none" />
  </g>
</svg>