<?xml version="1.0" encoding="utf-8"?>
<svg version="1.1" xmlns:xlink="http://www.w3.org/1999/xlink" width="80px" height="35px" xmlns="http://www.w3.org/2000/svg">
  <g transform="matrix(1 0 0 1 -964 -569 )">
    <path d="M 965 574  A 4 4 0 0 1 969 570 L 1039 570  A 4 4 0 0 1 1043 574 L 1043 599  A 4 4 0 0 1 1039 603 L 969 603  A 4 4 0 0 1 965 599 L 965 574  Z " fill-rule="nonzero" fill="#f0f7ff" stroke="none" />
    <path d="M 964.5 574  A 4.5 4.5 0 0 1 969 569.5 L 1039 569.5  A 4.5 4.5 0 0 1 1043.5 574 L 1043.5 599  A 4.5 4.5 0 0 1 1039 603.5 L 969 603.5  A 4.5 4.5 0 0 1 964.5 599 L 964.5 574  Z " stroke-width="1" stroke="#7abbff" fill="none" stroke-opacity="0.996078431372549" />
  </g>
</svg>