<?xml version="1.0" encoding="utf-8"?>
<svg version="1.1" xmlns:xlink="http://www.w3.org/1999/xlink" width="70px" height="25px" xmlns="http://www.w3.org/2000/svg">
  <g transform="matrix(1 0 0 1 -276 -193 )">
    <path d="M 277 201  A 7 7 0 0 1 284 194 L 338 194  A 7 7 0 0 1 345 201 L 345 210  A 7 7 0 0 1 338 217 L 284 217  A 7 7 0 0 1 277 210 L 277 201  Z " fill-rule="nonzero" fill="#81d3f8" stroke="none" fill-opacity="0.168627450980392" />
    <path d="M 276.5 201  A 7.5 7.5 0 0 1 284 193.5 L 338 193.5  A 7.5 7.5 0 0 1 345.5 201 L 345.5 210  A 7.5 7.5 0 0 1 338 217.5 L 284 217.5  A 7.5 7.5 0 0 1 276.5 210 L 276.5 201  Z " stroke-width="1" stroke="#0079fe" fill="none" stroke-opacity="0.654901960784314" />
  </g>
</svg>