<?xml version="1.0" encoding="utf-8"?>
<svg version="1.1" xmlns:xlink="http://www.w3.org/1999/xlink" width="26px" height="26px" xmlns="http://www.w3.org/2000/svg">
  <g transform="matrix(1 0 0 1 -317 -1124 )">
    <path d="M 330 1125  C 336.72 1125  342 1130.28  342 1137  C 342 1143.72  336.72 1149  330 1149  C 323.28 1149  318 1143.72  318 1137  C 318 1130.28  323.28 1125  330 1125  Z " fill-rule="nonzero" fill="#0079fe" stroke="none" />
    <path d="M 330 1125  C 336.72 1125  342 1130.28  342 1137  C 342 1143.72  336.72 1149  330 1149  C 323.28 1149  318 1143.72  318 1137  C 318 1130.28  323.28 1125  330 1125  Z " stroke-width="2" stroke="#0079fe" fill="none" />
  </g>
</svg>