<?xml version="1.0" encoding="utf-8"?>
<svg version="1.1" xmlns:xlink="http://www.w3.org/1999/xlink" width="331px" height="104px" xmlns="http://www.w3.org/2000/svg">
  <g transform="matrix(1 0 0 1 -67 -177 )">
    <path d="M 68 181  A 3 3 0 0 1 71 178 L 394 178  A 3 3 0 0 1 397 181 L 397 277  A 3 3 0 0 1 394 280 L 71 280  A 3 3 0 0 1 68 277 L 68 181  Z " fill-rule="nonzero" fill="#000000" stroke="none" fill-opacity="0.0196078431372549" />
    <path d="M 67.5 181  A 3.5 3.5 0 0 1 71 177.5 L 394 177.5  A 3.5 3.5 0 0 1 397.5 181 L 397.5 277  A 3.5 3.5 0 0 1 394 280.5 L 71 280.5  A 3.5 3.5 0 0 1 67.5 277 L 67.5 181  Z " stroke-width="1" stroke-dasharray="9,4" stroke="#d9d9d9" fill="none" stroke-dashoffset="0.5" />
  </g>
</svg>