<?xml version="1.0" encoding="utf-8"?>
<svg version="1.1" xmlns:xlink="http://www.w3.org/1999/xlink" width="18px" height="18px" xmlns="http://www.w3.org/2000/svg">
  <g transform="matrix(1 0 0 1 -214 -204 )">
    <path d="M 0.120785853599983 0.0793217240999411  L 0.120785853599983 8.44750908517494  L 8.48899346512502 8.44750908562503  L 8.48899346467502 0.0793217240999411  L 0.120785853599983 0.0793217240999411  Z M 2.2128529437 6.35546224507493  L 2.2128529437 2.17136856442494  L 6.39694662457501 2.17136856442494  L 6.39694662434999 6.35546224507493  L 2.2128529437 6.35546224507493  Z M 17.90323460145 0.0793217240999411  L 9.53502701017499 0.0793217240999411  L 9.53502701017499 8.44752933562506  L 17.903234621475 8.44752933562506  L 17.90323460145 0.0793217240999411  Z M 15.8111675307 2.17136856442494  L 15.8111675307 6.35546224507493  L 11.627073850275 6.35546224507493  L 11.627073850275 2.17136856442494  L 15.8111675307 2.17136856442494  Z M 3.25886623897497 3.21738185970003  L 3.25886623897497 5.30944894957497  L 5.35091307907499 5.30944895002494  L 5.35091307907499 3.21738185970003  L 3.25886623897497 3.21738185970003  Z M 0.120785853599983 9.49354263067505  L 0.120785853599983 17.861750241975  L 8.48899346512502 17.861750241975  L 8.48899346467502 9.49354263067505  L 0.120785853599983 9.49354263067505  Z M 2.2128529437 15.76968315165  L 2.2128529437 11.585589471675  L 6.39694662457501 11.5855894707751  L 6.39694662434999 15.76968315165  L 2.2128529437 15.76968315165  Z M 14.76515421585 3.21738185970003  L 12.67308714555 3.21738185970003  L 12.67308714555 5.30942869957494  L 14.765133985425 5.30942869957494  L 14.7651339861 3.21738185970003  Z M 9.53502701017499 15.76970338185  L 9.53502701017499 17.861750241975  L 11.627073850275 17.861750241975  L 11.627073850275 15.76970338185  L 9.53502701017499 15.76970338185  Z M 13.719120690825 11.585589471675  L 11.627073850275 11.585589471675  L 11.627073850275 15.76968315165  L 13.719120690825 15.76968315165  L 13.719120690825 11.585589471675  Z M 15.8111675307 13.6776363113249  L 15.8111675307 15.76970338185  L 13.719120690825 15.76970338185  L 13.719120690825 17.861750241975  L 17.903214371475 17.861750241975  L 17.903214371475 13.6776363113249  L 15.8111675307 13.6776363113249  Z M 15.8111675307 9.49354263067505  L 15.8111675307 11.585589471675  L 17.903214371475 11.5855894707751  L 17.903214371475 9.49354263067505  L 15.8111675307 9.49354263067505  Z M 11.627073850275 9.49354263067505  L 9.53502701017499 9.49354263067505  L 9.53502701017499 11.5855894707751  L 11.627073850275 11.585589471675  L 11.627073850275 9.49354263067505  Z M 3.25886623897497 12.63162301605  L 3.25886623897497 14.723669856375  L 5.35091307907499 14.723669856375  L 5.35091307907499 12.63162301605  L 3.25886623897497 12.63162301605  Z " fill-rule="nonzero" fill="#ffffff" stroke="none" transform="matrix(1 0 0 1 214 204 )" />
  </g>
</svg>