<?xml version="1.0" encoding="utf-8"?>
<svg version="1.1" xmlns:xlink="http://www.w3.org/1999/xlink" width="200px" height="200px" xmlns="http://www.w3.org/2000/svg">
  <g transform="matrix(1 0 0 1 -1215 -234 )">
    <path d="M 37 145  L 55 145  L 55 163  L 37 163  L 37 145  Z M 37 37  L 55 37  L 55 55  L 37 55  L 37 37  Z M 145 37  L 163 37  L 163 55  L 145 55  L 145 37  Z M 19 127  L 19 181  L 73 181  L 73 127  L 19 127  Z M 19 19  L 19 73  L 73 73  L 73 19  L 19 19  Z M 127 19  L 127 73  L 181 73  L 181 19  L 127 19  Z M 0 109  L 91 109  L 91 200  L 0 200  L 0 109  Z M 145 181  L 163 181  L 163 200  L 145 200  L 145 181  Z M 181 181  L 200 181  L 200 200  L 181 200  L 181 181  Z M 181 109  L 200 109  L 200 163  L 145 163  L 145 145  L 127 145  L 127 200  L 109 200  L 109 109  L 163 109  L 163 127  L 181 127  L 181 109  Z M 0 0  L 91 0  L 91 91  L 0 91  L 0 0  Z M 109 0  L 200 0  L 200 91  L 109 91  L 109 0  Z " fill-rule="nonzero" fill="#000000" stroke="none" transform="matrix(1 0 0 1 1215 234 )" />
  </g>
</svg>