<?xml version="1.0" encoding="utf-8"?>
<svg version="1.1" xmlns:xlink="http://www.w3.org/1999/xlink" width="70px" height="25px" xmlns="http://www.w3.org/2000/svg">
  <g transform="matrix(1 0 0 1 -59 -254 )">
    <path d="M 60 262  A 7 7 0 0 1 67 255 L 121 255  A 7 7 0 0 1 128 262 L 128 271  A 7 7 0 0 1 121 278 L 67 278  A 7 7 0 0 1 60 271 L 60 262  Z " fill-rule="nonzero" fill="#81d3f8" stroke="none" fill-opacity="0.168627450980392" />
    <path d="M 59.5 262  A 7.5 7.5 0 0 1 67 254.5 L 121 254.5  A 7.5 7.5 0 0 1 128.5 262 L 128.5 271  A 7.5 7.5 0 0 1 121 278.5 L 67 278.5  A 7.5 7.5 0 0 1 59.5 271 L 59.5 262  Z " stroke-width="1" stroke="#0079fe" fill="none" stroke-opacity="0.654901960784314" />
  </g>
</svg>