<?xml version="1.0" encoding="utf-8"?>
<svg version="1.1" xmlns:xlink="http://www.w3.org/1999/xlink" width="331px" height="104px" xmlns="http://www.w3.org/2000/svg">
  <g transform="matrix(1 0 0 1 -44 -1844 )">
    <path d="M 45 1848  A 3 3 0 0 1 48 1845 L 371 1845  A 3 3 0 0 1 374 1848 L 374 1944  A 3 3 0 0 1 371 1947 L 48 1947  A 3 3 0 0 1 45 1944 L 45 1848  Z " fill-rule="nonzero" fill="#000000" stroke="none" fill-opacity="0.0196078431372549" />
    <path d="M 44.5 1848  A 3.5 3.5 0 0 1 48 1844.5 L 371 1844.5  A 3.5 3.5 0 0 1 374.5 1848 L 374.5 1944  A 3.5 3.5 0 0 1 371 1947.5 L 48 1947.5  A 3.5 3.5 0 0 1 44.5 1944 L 44.5 1848  Z " stroke-width="1" stroke-dasharray="9,4" stroke="#d9d9d9" fill="none" stroke-dashoffset="0.5" />
  </g>
</svg>