<?xml version="1.0" encoding="utf-8"?>
<svg version="1.1" xmlns:xlink="http://www.w3.org/1999/xlink" width="331px" height="104px" xmlns="http://www.w3.org/2000/svg">
  <g transform="matrix(1 0 0 1 -78 -1949 )">
    <path d="M 79 1953  A 3 3 0 0 1 82 1950 L 405 1950  A 3 3 0 0 1 408 1953 L 408 2049  A 3 3 0 0 1 405 2052 L 82 2052  A 3 3 0 0 1 79 2049 L 79 1953  Z " fill-rule="nonzero" fill="#000000" stroke="none" fill-opacity="0.0196078431372549" />
    <path d="M 78.5 1953  A 3.5 3.5 0 0 1 82 1949.5 L 405 1949.5  A 3.5 3.5 0 0 1 408.5 1953 L 408.5 2049  A 3.5 3.5 0 0 1 405 2052.5 L 82 2052.5  A 3.5 3.5 0 0 1 78.5 2049 L 78.5 1953  Z " stroke-width="1" stroke-dasharray="9,4" stroke="#d9d9d9" fill="none" stroke-dashoffset="0.5" />
  </g>
</svg>