<?xml version="1.0" encoding="utf-8"?>
<svg version="1.1" xmlns:xlink="http://www.w3.org/1999/xlink" width="80px" height="30px" xmlns="http://www.w3.org/2000/svg">
  <g transform="matrix(1 0 0 1 -867 -350 )">
    <path d="M 868 353  A 2 2 0 0 1 870 351 L 944 351  A 2 2 0 0 1 946 353 L 946 377  A 2 2 0 0 1 944 379 L 870 379  A 2 2 0 0 1 868 377 L 868 353  Z " fill-rule="nonzero" fill="#f0f7ff" stroke="none" />
    <path d="M 867.5 353  A 2.5 2.5 0 0 1 870 350.5 L 944 350.5  A 2.5 2.5 0 0 1 946.5 353 L 946.5 377  A 2.5 2.5 0 0 1 944 379.5 L 870 379.5  A 2.5 2.5 0 0 1 867.5 377 L 867.5 353  Z " stroke-width="1" stroke="#7abbff" fill="none" stroke-opacity="0.996078431372549" />
  </g>
</svg>