<?xml version="1.0" encoding="utf-8"?>
<svg version="1.1" xmlns:xlink="http://www.w3.org/1999/xlink" width="109px" height="50px" xmlns="http://www.w3.org/2000/svg">
  <g transform="matrix(1 0 0 1 -570 -1260 )">
    <path d="M 570.5 1263  A 2.5 2.5 0 0 1 573 1260.5 L 676 1260.5  A 2.5 2.5 0 0 1 678.5 1263 L 678.5 1307  A 2.5 2.5 0 0 1 676 1309.5 L 573 1309.5  A 2.5 2.5 0 0 1 570.5 1307 L 570.5 1263  Z " fill-rule="nonzero" fill="#f9f9f9" stroke="none" />
    <path d="M 570.5 1263  A 2.5 2.5 0 0 1 573 1260.5 L 676 1260.5  A 2.5 2.5 0 0 1 678.5 1263 L 678.5 1307  A 2.5 2.5 0 0 1 676 1309.5 L 573 1309.5  A 2.5 2.5 0 0 1 570.5 1307 L 570.5 1263  Z " stroke-width="1" stroke="#e4e4e4" fill="none" />
  </g>
</svg>