<?xml version="1.0" encoding="utf-8"?>
<svg version="1.1" xmlns:xlink="http://www.w3.org/1999/xlink" width="136px" height="50px" xmlns="http://www.w3.org/2000/svg">
  <g transform="matrix(1 0 0 1 -695 -1260 )">
    <path d="M 695.5 1263  A 2.5 2.5 0 0 1 698 1260.5 L 828 1260.5  A 2.5 2.5 0 0 1 830.5 1263 L 830.5 1307  A 2.5 2.5 0 0 1 828 1309.5 L 698 1309.5  A 2.5 2.5 0 0 1 695.5 1307 L 695.5 1263  Z " fill-rule="nonzero" fill="#2b85e4" stroke="none" />
    <path d="M 695.5 1263  A 2.5 2.5 0 0 1 698 1260.5 L 828 1260.5  A 2.5 2.5 0 0 1 830.5 1263 L 830.5 1307  A 2.5 2.5 0 0 1 828 1309.5 L 698 1309.5  A 2.5 2.5 0 0 1 695.5 1307 L 695.5 1263  Z " stroke-width="1" stroke="#2b85e4" fill="none" />
  </g>
</svg>