<?xml version="1.0" encoding="utf-8"?>
<svg version="1.1" xmlns:xlink="http://www.w3.org/1999/xlink" width="460px" height="55px" xmlns="http://www.w3.org/2000/svg">
  <defs>
    <mask fill="white" id="clip584">
      <path d="M 0 55  L 0 10  C 0 4.39999999999998  5.31233595800522 0  12.0734908136483 0  L 102.470542246049 0  L 447.926509186352 0  C 454.687664041995 0  460 4.39999999999998  460 10  L 460 55  L 0 55  Z " fill-rule="evenodd" />
    </mask>
  </defs>
  <g transform="matrix(1 0 0 1 -692 -1815 )">
    <path d="M 0 55  L 0 10  C 0 4.39999999999998  5.31233595800522 0  12.0734908136483 0  L 102.470542246049 0  L 447.926509186352 0  C 454.687664041995 0  460 4.39999999999998  460 10  L 460 55  L 0 55  Z " fill-rule="nonzero" fill="#f9f9f9" stroke="none" transform="matrix(1 0 0 1 692 1815 )" />
    <path d="M 0 55  L 0 10  C 0 4.39999999999998  5.31233595800522 0  12.0734908136483 0  L 102.470542246049 0  L 447.926509186352 0  C 454.687664041995 0  460 4.39999999999998  460 10  L 460 55  L 0 55  Z " stroke-width="2" stroke="#e9e9e9" fill="none" transform="matrix(1 0 0 1 692 1815 )" mask="url(#clip584)" />
  </g>
</svg>