<?xml version="1.0" encoding="utf-8"?>
<svg version="1.1" xmlns:xlink="http://www.w3.org/1999/xlink" width="855px" height="156px" xmlns="http://www.w3.org/2000/svg">
  <defs>
    <linearGradient gradientUnits="userSpaceOnUse" x1="427" y1="0" x2="427" y2="155" id="LinearGradient115">
      <stop id="Stop116" stop-color="#02a7f0" offset="0" />
      <stop id="Stop117" stop-color="#2f54eb" stop-opacity="0.4" offset="1" />
    </linearGradient>
  </defs>
  <g transform="matrix(1 0 0 1 -289 -1593 )">
    <path d="M 3.5 154.20716112532  L 854.5 154.20716112532  L 854.5 114.495979749851  C 854.5 114.495979749851  792.038296549282 88.1350431269491  712.408952629292 87.2198996655518  C 632.067833325841 86.2965760967205  640.954972382529 126.84044338169  573.601477618427 114.495979749851  C 486.365706780465 98.5075176176894  530.786469421462 48.8589660110455  439.990004345936 18.7918060200669  C 368.537752393547 -4.86953684588267  367.73018885464 -3.87916871788496  289.948900510365 9.60138192985295  C 197.487912375423 25.6261233557862  232.524432956243 56.2256938736311  140.273942400441 81.6503181336162  C 69.525123048589 101.148991127342  3.5 96.0326086956526  3.5 96.0326086956526  L 3.5 154.20716112532  Z " fill-rule="nonzero" fill="url(#LinearGradient115)" stroke="none" transform="matrix(1 0 0 1 289 1593 )" />
    <path d="M 854.5 154.20716112532  L 854.5 114.495979749851  C 854.5 114.495979749851  792.038296549282 88.1350431269491  712.408952629292 87.2198996655518  C 632.067833325841 86.2965760967205  640.954972382529 126.84044338169  573.601477618427 114.495979749851  C 486.365706780465 98.5075176176894  530.786469421462 48.8589660110455  439.990004345936 18.7918060200669  C 368.537752393547 -4.86953684588267  367.73018885464 -3.87916871788496  289.948900510365 9.60138192985295  C 197.487912375423 25.6261233557862  232.524432956243 56.2256938736311  140.273942400441 81.6503181336162  C 69.525123048589 101.148991127342  3.5 96.0326086956526  3.5 96.0326086956526  L 3.5 154.20716112532  " stroke-width="1" stroke="#13c2c2" fill="none" transform="matrix(1 0 0 1 289 1593 )" />
  </g>
</svg>