<?xml version="1.0" encoding="utf-8"?>
<svg version="1.1" xmlns:xlink="http://www.w3.org/1999/xlink" width="12px" height="12px" xmlns="http://www.w3.org/2000/svg">
  <g transform="matrix(1 0 0 1 -322 -1035 )">
    <path d="M 328 1035  C 331.36 1035  334 1037.64  334 1041  C 334 1044.36  331.36 1047  328 1047  C 324.64 1047  322 1044.36  322 1041  C 322 1037.64  324.64 1035  328 1035  Z " fill-rule="nonzero" fill="#ffffff" stroke="none" />
    <path d="M 328 1035.5  C 331.08 1035.5  333.5 1037.92  333.5 1041  C 333.5 1044.08  331.08 1046.5  328 1046.5  C 324.92 1046.5  322.5 1044.08  322.5 1041  C 322.5 1037.92  324.92 1035.5  328 1035.5  Z " stroke-width="1" stroke="#909399" fill="none" />
  </g>
</svg>