<?xml version="1.0" encoding="utf-8"?>
<svg version="1.1" xmlns:xlink="http://www.w3.org/1999/xlink" width="12px" height="12px" xmlns="http://www.w3.org/2000/svg">
  <g transform="matrix(1 0 0 1 -322 -1035 )">
    <path d="M 328 1039  C 329.12 1039  330 1039.88  330 1041  C 330 1042.12  329.12 1043  328 1043  C 326.88 1043  326 1042.12  326 1041  C 326 1039.88  326.88 1039  328 1039  Z " fill-rule="nonzero" fill="#ffffff" stroke="none" />
    <path d="M 328 1037.5  C 329.96 1037.5  331.5 1039.04  331.5 1041  C 331.5 1042.96  329.96 1044.5  328 1044.5  C 326.04 1044.5  324.5 1042.96  324.5 1041  C 324.5 1039.04  326.04 1037.5  328 1037.5  Z " stroke-width="5" stroke="#409eff" fill="none" />
  </g>
</svg>