<?xml version="1.0" encoding="utf-8"?>
<svg version="1.1" xmlns:xlink="http://www.w3.org/1999/xlink" width="335px" height="94px" xmlns="http://www.w3.org/2000/svg">
  <defs>
    <mask fill="white" id="clip26">
      <path d="M 0 86.9850746268657  L 0 7.01492537313433  C 0 3.08656716417917  2.19999999999982 0  5 0  L 330 0  C 332.8 0  335 3.08656716417917  335 7.01492537313433  L 335 86.9850746268657  C 335 90.9134328358208  332.8 94  330 94  L 78.1779141104316 94  L 5 94  C 2.19999999999982 94  0 90.9134328358208  0 86.9850746268657  Z " fill-rule="evenodd" />
    </mask>
  </defs>
  <g transform="matrix(1 0 0 1 -2539 -735 )">
    <path d="M 0 86.9850746268657  L 0 7.01492537313433  C 0 3.08656716417917  2.19999999999982 0  5 0  L 330 0  C 332.8 0  335 3.08656716417917  335 7.01492537313433  L 335 86.9850746268657  C 335 90.9134328358208  332.8 94  330 94  L 78.1779141104316 94  L 5 94  C 2.19999999999982 94  0 90.9134328358208  0 86.9850746268657  Z " fill-rule="nonzero" fill="#ffeee6" stroke="none" transform="matrix(1 0 0 1 2539 735 )" />
    <path d="M 0 86.9850746268657  L 0 7.01492537313433  C 0 3.08656716417917  2.19999999999982 0  5 0  L 330 0  C 332.8 0  335 3.08656716417917  335 7.01492537313433  L 335 86.9850746268657  C 335 90.9134328358208  332.8 94  330 94  L 78.1779141104316 94  L 5 94  C 2.19999999999982 94  0 90.9134328358208  0 86.9850746268657  Z " stroke-width="2" stroke="#ffebcc" fill="none" transform="matrix(1 0 0 1 2539 735 )" mask="url(#clip26)" />
  </g>
</svg>