<?xml version="1.0" encoding="utf-8"?>
<svg version="1.1" xmlns:xlink="http://www.w3.org/1999/xlink" width="331px" height="104px" xmlns="http://www.w3.org/2000/svg">
  <g transform="matrix(1 0 0 1 -21 -703 )">
    <path d="M 22 707  A 3 3 0 0 1 25 704 L 348 704  A 3 3 0 0 1 351 707 L 351 803  A 3 3 0 0 1 348 806 L 25 806  A 3 3 0 0 1 22 803 L 22 707  Z " fill-rule="nonzero" fill="#000000" stroke="none" fill-opacity="0.0196078431372549" />
    <path d="M 21.5 707  A 3.5 3.5 0 0 1 25 703.5 L 348 703.5  A 3.5 3.5 0 0 1 351.5 707 L 351.5 803  A 3.5 3.5 0 0 1 348 806.5 L 25 806.5  A 3.5 3.5 0 0 1 21.5 803 L 21.5 707  Z " stroke-width="1" stroke-dasharray="9,4" stroke="#d9d9d9" fill="none" stroke-dashoffset="0.5" />
  </g>
</svg>