<?xml version="1.0" encoding="utf-8"?>
<svg version="1.1" xmlns:xlink="http://www.w3.org/1999/xlink" width="30px" height="30px" xmlns="http://www.w3.org/2000/svg">
  <g transform="matrix(1 0 0 1 -18 -993 )">
    <path d="M 33 994  C 40.84 994  47 1000.16  47 1008  C 47 1015.84  40.84 1022  33 1022  C 25.16 1022  19 1015.84  19 1008  C 19 1000.16  25.16 994  33 994  Z " fill-rule="nonzero" fill="#0079fe" stroke="none" />
    <path d="M 33 994  C 40.84 994  47 1000.16  47 1008  C 47 1015.84  40.84 1022  33 1022  C 25.16 1022  19 1015.84  19 1008  C 19 1000.16  25.16 994  33 994  Z " stroke-width="2" stroke="#0079fe" fill="none" />
  </g>
</svg>