<?xml version="1.0" encoding="utf-8"?>
<svg version="1.1" xmlns:xlink="http://www.w3.org/1999/xlink" width="70px" height="25px" xmlns="http://www.w3.org/2000/svg">
  <g transform="matrix(1 0 0 1 -31 -728 )">
    <path d="M 32 736  A 7 7 0 0 1 39 729 L 93 729  A 7 7 0 0 1 100 736 L 100 745  A 7 7 0 0 1 93 752 L 39 752  A 7 7 0 0 1 32 745 L 32 736  Z " fill-rule="nonzero" fill="#81d3f8" stroke="none" fill-opacity="0.168627450980392" />
    <path d="M 31.5 736  A 7.5 7.5 0 0 1 39 728.5 L 93 728.5  A 7.5 7.5 0 0 1 100.5 736 L 100.5 745  A 7.5 7.5 0 0 1 93 752.5 L 39 752.5  A 7.5 7.5 0 0 1 31.5 745 L 31.5 736  Z " stroke-width="1" stroke="#0079fe" fill="none" stroke-opacity="0.654901960784314" />
  </g>
</svg>