<?xml version="1.0" encoding="utf-8"?>
<svg version="1.1" xmlns:xlink="http://www.w3.org/1999/xlink" width="331px" height="104px" xmlns="http://www.w3.org/2000/svg">
  <g transform="matrix(1 0 0 1 -20 -2332 )">
    <path d="M 21 2336  A 3 3 0 0 1 24 2333 L 347 2333  A 3 3 0 0 1 350 2336 L 350 2432  A 3 3 0 0 1 347 2435 L 24 2435  A 3 3 0 0 1 21 2432 L 21 2336  Z " fill-rule="nonzero" fill="#000000" stroke="none" fill-opacity="0.0196078431372549" />
    <path d="M 20.5 2336  A 3.5 3.5 0 0 1 24 2332.5 L 347 2332.5  A 3.5 3.5 0 0 1 350.5 2336 L 350.5 2432  A 3.5 3.5 0 0 1 347 2435.5 L 24 2435.5  A 3.5 3.5 0 0 1 20.5 2432 L 20.5 2336  Z " stroke-width="1" stroke-dasharray="9,4" stroke="#d9d9d9" fill="none" stroke-dashoffset="0.5" />
  </g>
</svg>