<?xml version="1.0" encoding="utf-8"?>
<svg version="1.1" xmlns:xlink="http://www.w3.org/1999/xlink" width="30px" height="30px" xmlns="http://www.w3.org/2000/svg">
  <g transform="matrix(1 0 0 1 -18 -1057 )">
    <path d="M 33 1058  C 40.84 1058  47 1064.16  47 1072  C 47 1079.84  40.84 1086  33 1086  C 25.16 1086  19 1079.84  19 1072  C 19 1064.16  25.16 1058  33 1058  Z " fill-rule="nonzero" fill="#ffffff" stroke="none" />
    <path d="M 33 1058  C 40.84 1058  47 1064.16  47 1072  C 47 1079.84  40.84 1086  33 1086  C 25.16 1086  19 1079.84  19 1072  C 19 1064.16  25.16 1058  33 1058  Z " stroke-width="2" stroke="#cccccc" fill="none" />
  </g>
</svg>