<?xml version="1.0" encoding="utf-8"?>
<svg version="1.1" xmlns:xlink="http://www.w3.org/1999/xlink" width="30px" height="30px" viewBox="237 368  30 30" xmlns="http://www.w3.org/2000/svg">
  <path d="M 252 368  C 260.4 368  267 374.6  267 383  C 267 391.4  260.4 398  252 398  C 243.6 398  237 391.4  237 383  C 237 374.6  243.6 368  252 368  Z " fill-rule="nonzero" fill="#ffffff" stroke="none" />
  <path d="M 252 368.5  C 260.12 368.5  266.5 374.88  266.5 383  C 266.5 391.12  260.12 397.5  252 397.5  C 243.88 397.5  237.5 391.12  237.5 383  C 237.5 374.88  243.88 368.5  252 368.5  Z " stroke-width="1" stroke="#f2f2f2" fill="none" />
  <path d="M 252 390.5  C 247.8 390.5  244.5 387.2  244.5 383  C 244.5 378.8  247.8 375.5  252 375.5  C 256.2 375.5  259.5 378.8  259.5 383  C 259.5 387.2  256.2 390.5  252 390.5  " fill-rule="nonzero" fill="#f2f2f2" stroke="none" />
</svg>