<?xml version="1.0" encoding="utf-8"?>
<svg version="1.1" xmlns:xlink="http://www.w3.org/1999/xlink" width="80px" height="35px" xmlns="http://www.w3.org/2000/svg">
  <g transform="matrix(1 0 0 1 -1062 -238 )">
    <path d="M 1063 243  A 4 4 0 0 1 1067 239 L 1137 239  A 4 4 0 0 1 1141 243 L 1141 268  A 4 4 0 0 1 1137 272 L 1067 272  A 4 4 0 0 1 1063 268 L 1063 243  Z " fill-rule="nonzero" fill="#f0f7ff" stroke="none" />
    <path d="M 1062.5 243  A 4.5 4.5 0 0 1 1067 238.5 L 1137 238.5  A 4.5 4.5 0 0 1 1141.5 243 L 1141.5 268  A 4.5 4.5 0 0 1 1137 272.5 L 1067 272.5  A 4.5 4.5 0 0 1 1062.5 268 L 1062.5 243  Z " stroke-width="1" stroke="#7abbff" fill="none" stroke-opacity="0.996078431372549" />
  </g>
</svg>