<?xml version="1.0" encoding="utf-8"?>
<svg version="1.1" xmlns:xlink="http://www.w3.org/1999/xlink" width="80px" height="35px" xmlns="http://www.w3.org/2000/svg">
  <g transform="matrix(1 0 0 1 -1062 -238 )">
    <path d="M 1062.5 243  A 4.5 4.5 0 0 1 1067 238.5 L 1137 238.5  A 4.5 4.5 0 0 1 1141.5 243 L 1141.5 268  A 4.5 4.5 0 0 1 1137 272.5 L 1067 272.5  A 4.5 4.5 0 0 1 1062.5 268 L 1062.5 243  Z " fill-rule="nonzero" fill="#f9f9f9" stroke="none" fill-opacity="0" />
    <path d="M 1062.5 243  A 4.5 4.5 0 0 1 1067 238.5 L 1137 238.5  A 4.5 4.5 0 0 1 1141.5 243 L 1141.5 268  A 4.5 4.5 0 0 1 1137 272.5 L 1067 272.5  A 4.5 4.5 0 0 1 1062.5 268 L 1062.5 243  Z " stroke-width="1" stroke="#e4e4e4" fill="none" />
  </g>
</svg>