<?xml version="1.0" encoding="utf-8"?>
<svg version="1.1" xmlns:xlink="http://www.w3.org/1999/xlink" width="12px" height="12px" viewBox="160 117.5  12 12" xmlns="http://www.w3.org/2000/svg">
  <path d="M 166 117.5  C 169.36 117.5  172 120.14  172 123.5  C 172 126.86  169.36 129.5  166 129.5  C 162.64 129.5  160 126.86  160 123.5  C 160 120.14  162.64 117.5  166 117.5  Z " fill-rule="nonzero" fill="#f0f0f0" stroke="none" />
  <path d="M 166 118  C 169.08 118  171.5 120.42  171.5 123.5  C 171.5 126.58  169.08 129  166 129  C 162.92 129  160.5 126.58  160.5 123.5  C 160.5 120.42  162.92 118  166 118  Z " stroke-width="1" stroke="#f2f2f2" fill="none" />
  <path d="M 166 126.5  C 164.32 126.5  163 125.18  163 123.5  C 163 121.82  164.32 120.5  166 120.5  C 167.68 120.5  169 121.82  169 123.5  C 169 125.18  167.68 126.5  166 126.5  " fill-rule="nonzero" fill="#f2f2f2" stroke="none" />
</svg>