<?xml version="1.0" encoding="utf-8"?>
<svg version="1.1" xmlns:xlink="http://www.w3.org/1999/xlink" width="12px" height="12px" viewBox="246 117.5  12 12" xmlns="http://www.w3.org/2000/svg">
  <path d="M 252 117.5  C 255.36 117.5  258 120.14  258 123.5  C 258 126.86  255.36 129.5  252 129.5  C 248.64 129.5  246 126.86  246 123.5  C 246 120.14  248.64 117.5  252 117.5  Z " fill-rule="nonzero" fill="#f0f0f0" stroke="none" />
  <path d="M 252 118  C 255.08 118  257.5 120.42  257.5 123.5  C 257.5 126.58  255.08 129  252 129  C 248.92 129  246.5 126.58  246.5 123.5  C 246.5 120.42  248.92 118  252 118  Z " stroke-width="1" stroke="#f2f2f2" fill="none" />
  <path d="M 252 126.5  C 250.32 126.5  249 125.18  249 123.5  C 249 121.82  250.32 120.5  252 120.5  C 253.68 120.5  255 121.82  255 123.5  C 255 125.18  253.68 126.5  252 126.5  " fill-rule="nonzero" fill="#f2f2f2" stroke="none" />
</svg>