<?xml version="1.0" encoding="utf-8"?>
<svg version="1.1" xmlns:xlink="http://www.w3.org/1999/xlink" width="12px" height="12px" viewBox="20 657.5  12 12" xmlns="http://www.w3.org/2000/svg">
  <path d="M 26 657.5  C 29.36 657.5  32 660.14  32 663.5  C 32 666.86  29.36 669.5  26 669.5  C 22.64 669.5  20 666.86  20 663.5  C 20 660.14  22.64 657.5  26 657.5  Z " fill-rule="nonzero" fill="#ffffff" stroke="none" />
  <path d="M 26 658  C 29.08 658  31.5 660.42  31.5 663.5  C 31.5 666.58  29.08 669  26 669  C 22.92 669  20.5 666.58  20.5 663.5  C 20.5 660.42  22.92 658  26 658  Z " stroke-width="1" stroke="#f2f2f2" fill="none" />
  <path d="M 26 666.5  C 24.32 666.5  23 665.18  23 663.5  C 23 661.82  24.32 660.5  26 660.5  C 27.68 660.5  29 661.82  29 663.5  C 29 665.18  27.68 666.5  26 666.5  " fill-rule="nonzero" fill="#f2f2f2" stroke="none" />
</svg>