<?xml version="1.0" encoding="utf-8"?>
<svg version="1.1" xmlns:xlink="http://www.w3.org/1999/xlink" width="12px" height="12px" viewBox="20 685.5  12 12" xmlns="http://www.w3.org/2000/svg">
  <path d="M 26 685.5  C 29.36 685.5  32 688.14  32 691.5  C 32 694.86  29.36 697.5  26 697.5  C 22.64 697.5  20 694.86  20 691.5  C 20 688.14  22.64 685.5  26 685.5  Z " fill-rule="nonzero" fill="#ffffff" stroke="none" />
  <path d="M 26 686  C 29.08 686  31.5 688.42  31.5 691.5  C 31.5 694.58  29.08 697  26 697  C 22.92 697  20.5 694.58  20.5 691.5  C 20.5 688.42  22.92 686  26 686  Z " stroke-width="1" stroke="#f2f2f2" fill="none" />
  <path d="M 26 694.5  C 24.32 694.5  23 693.18  23 691.5  C 23 689.82  24.32 688.5  26 688.5  C 27.68 688.5  29 689.82  29 691.5  C 29 693.18  27.68 694.5  26 694.5  " fill-rule="nonzero" fill="#f2f2f2" stroke="none" />
</svg>