<?xml version="1.0" encoding="utf-8"?>
<svg version="1.1" xmlns:xlink="http://www.w3.org/1999/xlink" width="80px" height="30px" xmlns="http://www.w3.org/2000/svg">
  <g transform="matrix(1 0 0 1 -2452 -1087 )">
    <path d="M 2453 1090  A 2 2 0 0 1 2455 1088 L 2529 1088  A 2 2 0 0 1 2531 1090 L 2531 1114  A 2 2 0 0 1 2529 1116 L 2455 1116  A 2 2 0 0 1 2453 1114 L 2453 1090  Z " fill-rule="nonzero" fill="#f0f7ff" stroke="none" />
    <path d="M 2452.5 1090  A 2.5 2.5 0 0 1 2455 1087.5 L 2529 1087.5  A 2.5 2.5 0 0 1 2531.5 1090 L 2531.5 1114  A 2.5 2.5 0 0 1 2529 1116.5 L 2455 1116.5  A 2.5 2.5 0 0 1 2452.5 1114 L 2452.5 1090  Z " stroke-width="1" stroke="#7abbff" fill="none" stroke-opacity="0.996078431372549" />
  </g>
</svg>