<?xml version="1.0" encoding="utf-8"?>
<svg version="1.1" xmlns:xlink="http://www.w3.org/1999/xlink" width="80px" height="30px" xmlns="http://www.w3.org/2000/svg">
  <g transform="matrix(1 0 0 1 -2452 -1087 )">
    <path d="M 2452.5 1090  A 2.5 2.5 0 0 1 2455 1087.5 L 2529 1087.5  A 2.5 2.5 0 0 1 2531.5 1090 L 2531.5 1114  A 2.5 2.5 0 0 1 2529 1116.5 L 2455 1116.5  A 2.5 2.5 0 0 1 2452.5 1114 L 2452.5 1090  Z " fill-rule="nonzero" fill="#f9f9f9" stroke="none" />
    <path d="M 2452.5 1090  A 2.5 2.5 0 0 1 2455 1087.5 L 2529 1087.5  A 2.5 2.5 0 0 1 2531.5 1090 L 2531.5 1114  A 2.5 2.5 0 0 1 2529 1116.5 L 2455 1116.5  A 2.5 2.5 0 0 1 2452.5 1114 L 2452.5 1090  Z " stroke-width="1" stroke="#e4e4e4" fill="none" />
  </g>
</svg>