<?xml version="1.0" encoding="utf-8"?>
<svg version="1.1" xmlns:xlink="http://www.w3.org/1999/xlink" width="110px" height="110px" xmlns="http://www.w3.org/2000/svg">
  <defs>
    <filter x="720px" y="675px" width="110px" height="110px" filterUnits="userSpaceOnUse" id="filter520">
      <feOffset dx="1" dy="1" in="SourceAlpha" result="shadowOffsetInner" />
      <feGaussianBlur stdDeviation="2.5" in="shadowOffsetInner" result="shadowGaussian" />
      <feComposite in2="shadowGaussian" operator="atop" in="SourceAlpha" result="shadowComposite" />
      <feColorMatrix type="matrix" values="0 0 0 0 0  0 0 0 0 0  0 0 0 0 0  0 0 0 0.698039215686274 0  " in="shadowComposite" />
    </filter>
    <g id="widget521">
      <path d="M 774 679  C 802 679  824 701  824 729  C 824 757  802 779  774 779  C 746 779  724 757  724 729  C 724 701  746 679  774 679  Z " fill-rule="nonzero" fill="#009dd9" stroke="none" />
      <path d="M 774 679.5  C 801.72 679.5  823.5 701.28  823.5 729  C 823.5 756.72  801.72 778.5  774 778.5  C 746.28 778.5  724.5 756.72  724.5 729  C 724.5 701.28  746.28 679.5  774 679.5  Z " stroke-width="1" stroke="#ffffff" fill="none" />
    </g>
  </defs>
  <g transform="matrix(1 0 0 1 -720 -675 )">
    <use xlink:href="#widget521" filter="url(#filter520)" />
    <use xlink:href="#widget521" />
  </g>
</svg>