<?xml version="1.0" encoding="utf-8"?>
<svg version="1.1" xmlns:xlink="http://www.w3.org/1999/xlink" width="136px" height="50px" xmlns="http://www.w3.org/2000/svg">
  <g transform="matrix(1 0 0 1 -2049 -1259 )">
    <path d="M 2049.5 1262  A 2.5 2.5 0 0 1 2052 1259.5 L 2182 1259.5  A 2.5 2.5 0 0 1 2184.5 1262 L 2184.5 1306  A 2.5 2.5 0 0 1 2182 1308.5 L 2052 1308.5  A 2.5 2.5 0 0 1 2049.5 1306 L 2049.5 1262  Z " fill-rule="nonzero" fill="#2b85e4" stroke="none" />
    <path d="M 2049.5 1262  A 2.5 2.5 0 0 1 2052 1259.5 L 2182 1259.5  A 2.5 2.5 0 0 1 2184.5 1262 L 2184.5 1306  A 2.5 2.5 0 0 1 2182 1308.5 L 2052 1308.5  A 2.5 2.5 0 0 1 2049.5 1306 L 2049.5 1262  Z " stroke-width="1" stroke="#2b85e4" fill="none" />
  </g>
</svg>