<?xml version="1.0" encoding="utf-8"?>
<svg version="1.1" xmlns:xlink="http://www.w3.org/1999/xlink" width="30px" height="30px" viewBox="1441 394  30 30" xmlns="http://www.w3.org/2000/svg">
  <path d="M 1456 394  C 1464.4 394  1471 400.6  1471 409  C 1471 417.4  1464.4 424  1456 424  C 1447.6 424  1441 417.4  1441 409  C 1441 400.6  1447.6 394  1456 394  Z " fill-rule="nonzero" fill="#f0f0f0" stroke="none" />
  <path d="M 1456 394.5  C 1464.12 394.5  1470.5 400.88  1470.5 409  C 1470.5 417.12  1464.12 423.5  1456 423.5  C 1447.88 423.5  1441.5 417.12  1441.5 409  C 1441.5 400.88  1447.88 394.5  1456 394.5  Z " stroke-width="1" stroke="#f2f2f2" fill="none" />
  <path d="M 1456 416.5  C 1451.8 416.5  1448.5 413.2  1448.5 409  C 1448.5 404.8  1451.8 401.5  1456 401.5  C 1460.2 401.5  1463.5 404.8  1463.5 409  C 1463.5 413.2  1460.2 416.5  1456 416.5  " fill-rule="nonzero" fill="#f2f2f2" stroke="none" />
</svg>