<?xml version="1.0" encoding="utf-8"?>
<svg version="1.1" xmlns:xlink="http://www.w3.org/1999/xlink" width="200px" height="233px" xmlns="http://www.w3.org/2000/svg">
  <g transform="matrix(1 0 0 1 -620 -487 )">
    <path d="M 150.520833333333 8.84151785714286  L 191.145833333333 49.4084821428571  C 193.576388888889 51.8355654761905  195.659722222222 55.1294642857143  197.395833333333 59.2901785714286  C 199.131944444444 63.4508928571429  200 67.2648809523809  200 70.7321428571429  L 200 220.517857142857  C 200 223.985119047619  198.784722222222 226.932291666667  196.354166666667 229.359375  C 193.923611111111 231.786458333333  190.972222222222 233  187.5 233  L 12.5 233  C 9.02777777777778 233  6.07638888888889 231.786458333333  3.64583333333333 229.359375  C 1.21527777777778 226.932291666667  0 223.985119047619  0 220.517857142857  L 0 12.4821428571429  C 0 9.01488095238095  1.21527777777778 6.06770833333333  3.64583333333333 3.640625  C 6.07638888888889 1.21354166666668  9.02777777777778 0  12.5 0  L 129.166666666667 0  C 132.638888888889 0  136.458333333333 0.866815476190486  140.625 2.60044642857143  C 144.791666666667 4.33407738095238  148.090277777778 6.41443452380951  150.520833333333 8.84151785714286  Z M 138.671875 20.5435267857143  C 137.630208333333 19.5033482142857  135.850694444444 18.5498511904762  133 17.6830357142857  L 133 67  L 182.291666666667 67  C 181.423611111111 64.0576636904762  180.46875 62.2806919642857  179.427083333333 61.2405133928571  L 138.671875 20.5435267857143  Z M 17 216  L 183 216  L 183 84  L 129.166666666667 84  C 125.694444444444 83.2142857142857  122.743055555556 82.000744047619  120.3125 79.5736607142857  C 117.881944444444 77.1465773809524  116.666666666667 74.1994047619047  116 70.7321428571429  L 116 17  L 17 17  L 17 216  Z M 125 116.5  L 166 158.107142857143  L 166 199  L 34 199  L 34 174.75  L 58.3333333333333 149.785714285714  L 75 166.428571428571  L 125 116.5  Z M 76.0416666666667 125.861607142857  C 71.1805555555556 130.715773809524  65.2777777777778 133.142857142857  58.3333333333333 133.142857142857  C 51.3888888888889 133.142857142857  45.4861111111111 130.715773809524  40.625 125.861607142857  C 35.7638888888889 121.00744047619  33.3333333333333 115.113095238095  33.3333333333333 108.178571428571  C 33.3333333333333 101.244047619048  35.7638888888889 95.3497023809524  40.625 90.4955357142857  C 45.4861111111111 85.641369047619  51.3888888888889 83.2142857142857  58.3333333333333 83.2142857142857  C 65.2777777777778 83.2142857142857  71.1805555555556 85.641369047619  76.0416666666667 90.4955357142857  C 80.9027777777778 95.3497023809524  83.3333333333333 101.244047619048  83.3333333333333 108.178571428571  C 83.3333333333333 115.113095238095  80.9027777777778 121.00744047619  76.0416666666667 125.861607142857  Z " fill-rule="nonzero" fill="#000000" stroke="none" transform="matrix(1 0 0 1 620 487 )" />
  </g>
</svg>