<?xml version="1.0" encoding="utf-8"?>
<svg version="1.1" xmlns:xlink="http://www.w3.org/1999/xlink" width="109px" height="50px" xmlns="http://www.w3.org/2000/svg">
  <g transform="matrix(1 0 0 1 -1924 -1259 )">
    <path d="M 1924.5 1262  A 2.5 2.5 0 0 1 1927 1259.5 L 2030 1259.5  A 2.5 2.5 0 0 1 2032.5 1262 L 2032.5 1306  A 2.5 2.5 0 0 1 2030 1308.5 L 1927 1308.5  A 2.5 2.5 0 0 1 1924.5 1306 L 1924.5 1262  Z " fill-rule="nonzero" fill="#f9f9f9" stroke="none" />
    <path d="M 1924.5 1262  A 2.5 2.5 0 0 1 1927 1259.5 L 2030 1259.5  A 2.5 2.5 0 0 1 2032.5 1262 L 2032.5 1306  A 2.5 2.5 0 0 1 2030 1308.5 L 1927 1308.5  A 2.5 2.5 0 0 1 1924.5 1306 L 1924.5 1262  Z " stroke-width="1" stroke="#e4e4e4" fill="none" />
  </g>
</svg>