<?xml version="1.0" encoding="utf-8"?>
<svg version="1.1" xmlns:xlink="http://www.w3.org/1999/xlink" width="20px" height="19px" xmlns="http://www.w3.org/2000/svg">
  <g transform="matrix(1 0 0 1 -118 -79 )">
    <path d="M 15.15625 17.181640625  C 15.3084935897436 17.0249565972222  15.3846153846154 16.8394097222222  15.3846153846154 16.625  C 15.3846153846154 16.4105902777778  15.3084935897436 16.2250434027778  15.15625 16.068359375  C 15.0040064102564 15.9116753472222  14.823717948718 15.8333333333333  14.6153846153846 15.8333333333333  C 14.4070512820513 15.8333333333333  14.2267628205128 15.9116753472222  14.0745192307692 16.068359375  C 13.9222756410256 16.2250434027778  13.8461538461538 16.4105902777778  13.8461538461538 16.625  C 13.8461538461538 16.8394097222222  13.9222756410256 17.0249565972222  14.0745192307692 17.181640625  C 14.2267628205128 17.3383246527778  14.4070512820513 17.4166666666667  14.6153846153846 17.4166666666667  C 14.823717948718 17.4166666666667  15.0040064102564 17.3383246527778  15.15625 17.181640625  Z M 18.2331730769231 17.181640625  C 18.3854166666667 17.0249565972222  18.4615384615385 16.8394097222222  18.4615384615385 16.625  C 18.4615384615385 16.4105902777778  18.3854166666667 16.2250434027778  18.2331730769231 16.068359375  C 18.0809294871795 15.9116753472222  17.900641025641 15.8333333333333  17.6923076923077 15.8333333333333  C 17.4839743589744 15.8333333333333  17.3036858974359 15.9116753472222  17.1514423076923 16.068359375  C 16.9991987179487 16.2250434027778  16.9230769230769 16.4105902777778  16.9230769230769 16.625  C 16.9230769230769 16.8394097222222  16.9991987179487 17.0249565972222  17.1514423076923 17.181640625  C 17.3036858974359 17.3383246527778  17.4839743589744 17.4166666666667  17.6923076923077 17.4166666666667  C 17.900641025641 17.4166666666667  18.0809294871795 17.3383246527778  18.2331730769231 17.181640625  Z M 19.6634615384615 13.0130208333333  C 19.8878205128205 13.2439236111111  20 13.5243055555556  20 13.8541666666667  L 20 17.8125  C 20 18.1423611111111  19.8878205128205 18.4227430555556  19.6634615384615 18.6536458333333  C 19.4391025641026 18.8845486111111  19.1666666666667 19  18.8461538461538 19  L 1.15384615384615 19  C 0.833333333333333 19  0.560897435897436 18.8845486111111  0.336538461538462 18.6536458333333  C 0.112179487179487 18.4227430555556  0 18.1423611111111  0 17.8125  L 0 13.8541666666667  C 0 13.5243055555556  0.112179487179487 13.2439236111111  0.336538461538462 13.0130208333333  C 0.560897435897436 12.7821180555556  0.833333333333333 12.6666666666667  1.15384615384615 12.6666666666667  L 6.74278846153846 12.6666666666667  L 8.36538461538462 14.3489583333333  C 8.83012820512821 14.8107638888889  9.375 15.0416666666667  10 15.0416666666667  C 10.625 15.0416666666667  11.1698717948718 14.8107638888889  11.6346153846154 14.3489583333333  L 13.2692307692308 12.6666666666667  L 18.8461538461538 12.6666666666667  C 19.1666666666667 12.6666666666667  19.4391025641026 12.7821180555556  19.6634615384615 13.0130208333333  Z M 15.3846153846154 6.33333333333333  C 15.7211538461538 6.33333333333333  15.9575320512821 6.494140625  16.09375 6.81575520833333  C 16.229967948718 7.15386284722222  16.1738782051282 7.44249131944444  15.9254807692308 7.681640625  L 10.5408653846154 13.2233072916667  C 10.3966346153846 13.3799913194444  10.2163461538462 13.4583333333333  10 13.4583333333333  C 9.78365384615385 13.4583333333333  9.60336538461539 13.3799913194444  9.45913461538462 13.2233072916667  L 4.07451923076923 7.681640625  C 3.8261217948718 7.44249131944444  3.77003205128205 7.15386284722222  3.90625 6.81575520833333  C 4.04246794871795 6.494140625  4.27884615384615 6.33333333333333  4.61538461538462 6.33333333333333  L 7.69230769230769 6.33333333333333  L 7.69230769230769 0.791666666666666  C 7.69230769230769 0.577256944444442  7.76842948717949 0.391710069444442  7.92067307692308 0.235026041666666  C 8.07291666666667 0.0783420138888901  8.25320512820513 0  8.46153846153846 0  L 11.5384615384615 0  C 11.7467948717949 0  11.9270833333333 0.0783420138888901  12.0793269230769 0.235026041666666  C 12.2315705128205 0.391710069444442  12.3076923076923 0.577256944444442  12.3076923076923 0.791666666666666  L 12.3076923076923 6.33333333333333  L 15.3846153846154 6.33333333333333  Z " fill-rule="nonzero" fill="#000000" stroke="none" transform="matrix(1 0 0 1 118 79 )" />
  </g>
</svg>