<?xml version="1.0" encoding="utf-8"?>
<svg version="1.1" xmlns:xlink="http://www.w3.org/1999/xlink" width="80px" height="30px" xmlns="http://www.w3.org/2000/svg">
  <g transform="matrix(1 0 0 1 -2210 -744 )">
    <path d="M 2210.5 747  A 2.5 2.5 0 0 1 2213 744.5 L 2287 744.5  A 2.5 2.5 0 0 1 2289.5 747 L 2289.5 771  A 2.5 2.5 0 0 1 2287 773.5 L 2213 773.5  A 2.5 2.5 0 0 1 2210.5 771 L 2210.5 747  Z " fill-rule="nonzero" fill="#f0f7ff" stroke="none" />
    <path d="M 2210.5 747  A 2.5 2.5 0 0 1 2213 744.5 L 2287 744.5  A 2.5 2.5 0 0 1 2289.5 747 L 2289.5 771  A 2.5 2.5 0 0 1 2287 773.5 L 2213 773.5  A 2.5 2.5 0 0 1 2210.5 771 L 2210.5 747  Z " stroke-width="1" stroke="#409eff" fill="none" />
  </g>
</svg>