<?xml version="1.0" encoding="utf-8"?>
<svg version="1.1" xmlns:xlink="http://www.w3.org/1999/xlink" width="136px" height="50px" xmlns="http://www.w3.org/2000/svg">
  <g transform="matrix(1 0 0 1 -118 -737 )">
    <path d="M 118.5 740  A 2.5 2.5 0 0 1 121 737.5 L 251 737.5  A 2.5 2.5 0 0 1 253.5 740 L 253.5 784  A 2.5 2.5 0 0 1 251 786.5 L 121 786.5  A 2.5 2.5 0 0 1 118.5 784 L 118.5 740  Z " fill-rule="nonzero" fill="#2b85e4" stroke="none" />
    <path d="M 118.5 740  A 2.5 2.5 0 0 1 121 737.5 L 251 737.5  A 2.5 2.5 0 0 1 253.5 740 L 253.5 784  A 2.5 2.5 0 0 1 251 786.5 L 121 786.5  A 2.5 2.5 0 0 1 118.5 784 L 118.5 740  Z " stroke-width="1" stroke="#2b85e4" fill="none" />
  </g>
</svg>