<?xml version="1.0" encoding="utf-8"?>
<svg version="1.1" xmlns:xlink="http://www.w3.org/1999/xlink" width="12px" height="12px" xmlns="http://www.w3.org/2000/svg">
  <g transform="matrix(1 0 0 1 -1953 -1242 )">
    <path d="M 1959 1242  C 1962.36 1242  1965 1244.64  1965 1248  C 1965 1251.36  1962.36 1254  1959 1254  C 1955.64 1254  1953 1251.36  1953 1248  C 1953 1244.64  1955.64 1242  1959 1242  Z " fill-rule="nonzero" fill="#ffffff" stroke="none" />
    <path d="M 1959 1242.5  C 1962.08 1242.5  1964.5 1244.92  1964.5 1248  C 1964.5 1251.08  1962.08 1253.5  1959 1253.5  C 1955.92 1253.5  1953.5 1251.08  1953.5 1248  C 1953.5 1244.92  1955.92 1242.5  1959 1242.5  Z " stroke-width="1" stroke="#409eff" fill="none" />
  </g>
</svg>