<?xml version="1.0" encoding="utf-8"?>
<svg version="1.1" xmlns:xlink="http://www.w3.org/1999/xlink" width="80px" height="35px" xmlns="http://www.w3.org/2000/svg">
  <g transform="matrix(1 0 0 1 -1034 -434 )">
    <path d="M 1034.5 439  A 4.5 4.5 0 0 1 1039 434.5 L 1109 434.5  A 4.5 4.5 0 0 1 1113.5 439 L 1113.5 464  A 4.5 4.5 0 0 1 1109 468.5 L 1039 468.5  A 4.5 4.5 0 0 1 1034.5 464 L 1034.5 439  Z " fill-rule="nonzero" fill="#f0f7ff" stroke="none" />
    <path d="M 1034.5 439  A 4.5 4.5 0 0 1 1039 434.5 L 1109 434.5  A 4.5 4.5 0 0 1 1113.5 439 L 1113.5 464  A 4.5 4.5 0 0 1 1109 468.5 L 1039 468.5  A 4.5 4.5 0 0 1 1034.5 464 L 1034.5 439  Z " stroke-width="1" stroke="#409eff" fill="none" />
  </g>
</svg>