<?xml version="1.0" encoding="utf-8"?>
<svg version="1.1" xmlns:xlink="http://www.w3.org/1999/xlink" width="14px" height="14px" xmlns="http://www.w3.org/2000/svg">
  <g transform="matrix(1 0 0 1 -362 -128 )">
    <path d="M 369 129  C 372.36 129  375 131.64  375 135  C 375 138.36  372.36 141  369 141  C 365.64 141  363 138.36  363 135  C 363 131.64  365.64 129  369 129  Z " fill-rule="nonzero" fill="#0d0d51" stroke="none" />
    <path d="M 369 129  C 372.36 129  375 131.64  375 135  C 375 138.36  372.36 141  369 141  C 365.64 141  363 138.36  363 135  C 363 131.64  365.64 129  369 129  Z " stroke-width="2" stroke="#ffffff" fill="none" />
  </g>
</svg>