<?xml version="1.0" encoding="utf-8"?>
<svg version="1.1" xmlns:xlink="http://www.w3.org/1999/xlink" width="436px" height="494px" xmlns="http://www.w3.org/2000/svg">
  <g transform="matrix(1 0 0 1 -158 -122 )">
    <path d="M 158.5 559.060432048127  C 158.5 559.060432048127  158.5 127  158.5 127  C 158.5 124.514718625761  160.514718625761 122.5  163 122.5  C 163 122.5  589 122.5  589 122.5  C 591.485281374239 122.5  593.5 124.514718625761  593.5 127  C 593.5 127  593.5 559.060432048127  593.5 559.060432048127  C 593.5 561.545713422366  591.485281374239 563.560432048127  589 563.560432048127  C 589 563.560432048127  522.388543051357 563.560432048127  522.388543051357 563.560432048127  C 522.388543051357 563.560432048127  513.037918656213 609.078310877769  513.037918656213 609.078310877769  C 513.037918656213 609.078310877769  503.199746756133 563.560432048127  503.199746756133 563.560432048127  C 503.199746756133 563.560432048127  163 563.560432048127  163 563.560432048127  C 160.514718625761 563.560432048127  158.5 561.545713422366  158.5 559.060432048127  Z " fill-rule="nonzero" fill="#ffffff" stroke="none" />
    <path d="M 158 559.060432048127  C 158 559.060432048127  158 127  158 127  C 158 124.238576250846  160.238576250846 122  163 122  C 163 122  589 122  589 122  C 591.761423749154 122  594 124.238576250846  594 127  C 594 127  594 559.060432048127  594 559.060432048127  C 594 561.821855797281  591.761423749154 564.060432048127  589 564.060432048127  C 589 564.060432048127  522.79627039627 564.060432048127  522.79627039627 564.060432048127  C 522.79627039627 564.060432048127  513.05034965035 611.502572898799  513.05034965035 611.502572898799  C 513.05034965035 611.502572898799  502.79627039627 564.060432048127  502.79627039627 564.060432048127  C 502.79627039627 564.060432048127  163 564.060432048127  163 564.060432048127  C 160.238576250846 564.060432048127  158 561.821855797281  158 559.060432048127  Z M 159 559.060432048127  C 159 561.26957104745  160.790861000677 563.060432048127  163 563.060432048127  C 163 563.060432048127  503.603223115996 563.060432048127  503.603223115996 563.060432048127  C 503.603223115996 563.060432048127  513.025487662077 606.654048856739  513.025487662077 606.654048856739  C 513.025487662077 606.654048856739  521.980815706443 563.060432048127  521.980815706443 563.060432048127  C 521.980815706443 563.060432048127  589 563.060432048127  589 563.060432048127  C 591.209138999323 563.060432048127  593 561.26957104745  593 559.060432048127  C 593 559.060432048127  593 127  593 127  C 593 124.790861000677  591.209138999323 123  589 123  C 589 123  163 123  163 123  C 160.790861000677 123  159 124.790861000677  159 127  C 159 127  159 559.060432048127  159 559.060432048127  Z " fill-rule="nonzero" fill="#d7d7d7" stroke="none" />
  </g>
</svg>