<?xml version="1.0" encoding="utf-8"?>
<svg version="1.1" xmlns:xlink="http://www.w3.org/1999/xlink" width="40px" height="40px" xmlns="http://www.w3.org/2000/svg">
  <defs>
    <filter x="2606px" y="620px" width="40px" height="40px" filterUnits="userSpaceOnUse" id="filter126">
      <feOffset dx="1" dy="1" in="SourceAlpha" result="shadowOffsetInner" />
      <feGaussianBlur stdDeviation="2.5" in="shadowOffsetInner" result="shadowGaussian" />
      <feComposite in2="shadowGaussian" operator="atop" in="SourceAlpha" result="shadowComposite" />
      <feColorMatrix type="matrix" values="0 0 0 0 0  0 0 0 0 0  0 0 0 0 0  0 0 0 0.698039215686274 0  " in="shadowComposite" />
    </filter>
    <g id="widget127">
      <path d="M 2625 624  C 2633.4 624  2640 630.6  2640 639  C 2640 647.4  2633.4 654  2625 654  C 2616.6 654  2610 647.4  2610 639  C 2610 630.6  2616.6 624  2625 624  Z " fill-rule="nonzero" fill="#009dd9" stroke="none" />
      <path d="M 2625 624.5  C 2633.12 624.5  2639.5 630.88  2639.5 639  C 2639.5 647.12  2633.12 653.5  2625 653.5  C 2616.88 653.5  2610.5 647.12  2610.5 639  C 2610.5 630.88  2616.88 624.5  2625 624.5  Z " stroke-width="1" stroke="#ffffff" fill="none" />
    </g>
  </defs>
  <g transform="matrix(1 0 0 1 -2606 -620 )">
    <use xlink:href="#widget127" filter="url(#filter126)" />
    <use xlink:href="#widget127" />
  </g>
</svg>