<?xml version="1.0" encoding="utf-8"?>
<svg version="1.1" xmlns:xlink="http://www.w3.org/1999/xlink" width="839px" height="142px" xmlns="http://www.w3.org/2000/svg">
  <g transform="matrix(1 0 0 1 -287 -1728 )">
    <path d="M 288 1732  A 3 3 0 0 1 291 1729 L 1122 1729  A 3 3 0 0 1 1125 1732 L 1125 1866  A 3 3 0 0 1 1122 1869 L 291 1869  A 3 3 0 0 1 288 1866 L 288 1732  Z " fill-rule="nonzero" fill="#000000" stroke="none" fill-opacity="0.0196078431372549" />
    <path d="M 287.5 1732  A 3.5 3.5 0 0 1 291 1728.5 L 1122 1728.5  A 3.5 3.5 0 0 1 1125.5 1732 L 1125.5 1866  A 3.5 3.5 0 0 1 1122 1869.5 L 291 1869.5  A 3.5 3.5 0 0 1 287.5 1866 L 287.5 1732  Z " stroke-width="1" stroke-dasharray="9,4" stroke="#d9d9d9" fill="none" stroke-dashoffset="0.5" />
  </g>
</svg>