<?xml version="1.0" encoding="utf-8"?>
<svg version="1.1" xmlns:xlink="http://www.w3.org/1999/xlink" width="26px" height="26px" xmlns="http://www.w3.org/2000/svg">
  <g transform="matrix(1 0 0 1 -1054 -1825 )">
    <path d="M 1067 1826  C 1073.72 1826  1079 1831.28  1079 1838  C 1079 1844.72  1073.72 1850  1067 1850  C 1060.28 1850  1055 1844.72  1055 1838  C 1055 1831.28  1060.28 1826  1067 1826  Z " fill-rule="nonzero" fill="#ffffff" stroke="none" />
    <path d="M 1067 1826  C 1073.72 1826  1079 1831.28  1079 1838  C 1079 1844.72  1073.72 1850  1067 1850  C 1060.28 1850  1055 1844.72  1055 1838  C 1055 1831.28  1060.28 1826  1067 1826  Z " stroke-width="2" stroke="#e4e4e4" fill="none" />
  </g>
</svg>