<?xml version="1.0" encoding="utf-8"?>
<svg version="1.1" xmlns:xlink="http://www.w3.org/1999/xlink" width="331px" height="104px" xmlns="http://www.w3.org/2000/svg">
  <g transform="matrix(1 0 0 1 -24 -907 )">
    <path d="M 25 911  A 3 3 0 0 1 28 908 L 351 908  A 3 3 0 0 1 354 911 L 354 1007  A 3 3 0 0 1 351 1010 L 28 1010  A 3 3 0 0 1 25 1007 L 25 911  Z " fill-rule="nonzero" fill="#000000" stroke="none" fill-opacity="0.0196078431372549" />
    <path d="M 24.5 911  A 3.5 3.5 0 0 1 28 907.5 L 351 907.5  A 3.5 3.5 0 0 1 354.5 911 L 354.5 1007  A 3.5 3.5 0 0 1 351 1010.5 L 28 1010.5  A 3.5 3.5 0 0 1 24.5 1007 L 24.5 911  Z " stroke-width="1" stroke-dasharray="9,4" stroke="#d9d9d9" fill="none" stroke-dashoffset="0.5" />
  </g>
</svg>