<?xml version="1.0" encoding="utf-8"?>
<svg version="1.1" xmlns:xlink="http://www.w3.org/1999/xlink" width="14px" height="14px" xmlns="http://www.w3.org/2000/svg">
  <g transform="matrix(1 0 0 1 -386 -77 )">
    <path d="M 393 78  C 396.36 78  399 80.64  399 84  C 399 87.36  396.36 90  393 90  C 389.64 90  387 87.36  387 84  C 387 80.64  389.64 78  393 78  Z " fill-rule="nonzero" fill="#0d0d51" stroke="none" />
    <path d="M 393 78  C 396.36 78  399 80.64  399 84  C 399 87.36  396.36 90  393 90  C 389.64 90  387 87.36  387 84  C 387 80.64  389.64 78  393 78  Z " stroke-width="2" stroke="#ffffff" fill="none" />
  </g>
</svg>