<?xml version="1.0" encoding="utf-8"?>
<svg version="1.1" xmlns:xlink="http://www.w3.org/1999/xlink" width="104px" height="104px" xmlns="http://www.w3.org/2000/svg">
  <g transform="matrix(1 0 0 1 -23 -5582 )">
    <path d="M 24 5586  A 3 3 0 0 1 27 5583 L 123 5583  A 3 3 0 0 1 126 5586 L 126 5682  A 3 3 0 0 1 123 5685 L 27 5685  A 3 3 0 0 1 24 5682 L 24 5586  Z " fill-rule="nonzero" fill="#000000" stroke="none" fill-opacity="0.0196078431372549" />
    <path d="M 23.5 5586  A 3.5 3.5 0 0 1 27 5582.5 L 123 5582.5  A 3.5 3.5 0 0 1 126.5 5586 L 126.5 5682  A 3.5 3.5 0 0 1 123 5685.5 L 27 5685.5  A 3.5 3.5 0 0 1 23.5 5682 L 23.5 5586  Z " stroke-width="1" stroke-dasharray="9,4" stroke="#d9d9d9" fill="none" stroke-dashoffset="0.5" />
  </g>
</svg>