<?xml version="1.0" encoding="utf-8"?>
<svg version="1.1" xmlns:xlink="http://www.w3.org/1999/xlink" width="80px" height="30px" xmlns="http://www.w3.org/2000/svg">
  <g transform="matrix(1 0 0 1 -2451 -840 )">
    <path d="M 2451.5 843  A 2.5 2.5 0 0 1 2454 840.5 L 2528 840.5  A 2.5 2.5 0 0 1 2530.5 843 L 2530.5 867  A 2.5 2.5 0 0 1 2528 869.5 L 2454 869.5  A 2.5 2.5 0 0 1 2451.5 867 L 2451.5 843  Z " fill-rule="nonzero" fill="#f0f7ff" stroke="none" />
    <path d="M 2451.5 843  A 2.5 2.5 0 0 1 2454 840.5 L 2528 840.5  A 2.5 2.5 0 0 1 2530.5 843 L 2530.5 867  A 2.5 2.5 0 0 1 2528 869.5 L 2454 869.5  A 2.5 2.5 0 0 1 2451.5 867 L 2451.5 843  Z " stroke-width="1" stroke="#409eff" fill="none" />
  </g>
</svg>