<?xml version="1.0" encoding="utf-8"?>
<svg version="1.1" xmlns:xlink="http://www.w3.org/1999/xlink" width="80px" height="30px" xmlns="http://www.w3.org/2000/svg">
  <g transform="matrix(1 0 0 1 -3474 -1117 )">
    <path d="M 3474.5 1120  A 2.5 2.5 0 0 1 3477 1117.5 L 3551 1117.5  A 2.5 2.5 0 0 1 3553.5 1120 L 3553.5 1144  A 2.5 2.5 0 0 1 3551 1146.5 L 3477 1146.5  A 2.5 2.5 0 0 1 3474.5 1144 L 3474.5 1120  Z " fill-rule="nonzero" fill="#f9f9f9" stroke="none" />
    <path d="M 3474.5 1120  A 2.5 2.5 0 0 1 3477 1117.5 L 3551 1117.5  A 2.5 2.5 0 0 1 3553.5 1120 L 3553.5 1144  A 2.5 2.5 0 0 1 3551 1146.5 L 3477 1146.5  A 2.5 2.5 0 0 1 3474.5 1144 L 3474.5 1120  Z " stroke-width="1" stroke="#e4e4e4" fill="none" />
  </g>
</svg>