<?xml version="1.0" encoding="utf-8"?>
<svg version="1.1" xmlns:xlink="http://www.w3.org/1999/xlink" width="12px" height="12px" xmlns="http://www.w3.org/2000/svg">
  <g transform="matrix(1 0 0 1 -2423 -1242 )">
    <path d="M 2429 1246  C 2430.12 1246  2431 1246.88  2431 1248  C 2431 1249.12  2430.12 1250  2429 1250  C 2427.88 1250  2427 1249.12  2427 1248  C 2427 1246.88  2427.88 1246  2429 1246  Z " fill-rule="nonzero" fill="#ffffff" stroke="none" />
    <path d="M 2429 1244.5  C 2430.96 1244.5  2432.5 1246.04  2432.5 1248  C 2432.5 1249.96  2430.96 1251.5  2429 1251.5  C 2427.04 1251.5  2425.5 1249.96  2425.5 1248  C 2425.5 1246.04  2427.04 1244.5  2429 1244.5  Z " stroke-width="5" stroke="#409eff" fill="none" />
  </g>
</svg>