<?xml version="1.0" encoding="utf-8"?>
<svg version="1.1" xmlns:xlink="http://www.w3.org/1999/xlink" width="839px" height="142px" xmlns="http://www.w3.org/2000/svg">
  <g transform="matrix(1 0 0 1 -1952 -2684 )">
    <path d="M 1953 2688  A 3 3 0 0 1 1956 2685 L 2787 2685  A 3 3 0 0 1 2790 2688 L 2790 2822  A 3 3 0 0 1 2787 2825 L 1956 2825  A 3 3 0 0 1 1953 2822 L 1953 2688  Z " fill-rule="nonzero" fill="#000000" stroke="none" fill-opacity="0.0196078431372549" />
    <path d="M 1952.5 2688  A 3.5 3.5 0 0 1 1956 2684.5 L 2787 2684.5  A 3.5 3.5 0 0 1 2790.5 2688 L 2790.5 2822  A 3.5 3.5 0 0 1 2787 2825.5 L 1956 2825.5  A 3.5 3.5 0 0 1 1952.5 2822 L 1952.5 2688  Z " stroke-width="1" stroke-dasharray="9,4" stroke="#d9d9d9" fill="none" stroke-dashoffset="0.5" />
  </g>
</svg>