<?xml version="1.0" encoding="utf-8"?>
<svg version="1.1" xmlns:xlink="http://www.w3.org/1999/xlink" width="70px" height="25px" xmlns="http://www.w3.org/2000/svg">
  <g transform="matrix(1 0 0 1 -1349 -493 )">
    <path d="M 1350 501  A 7 7 0 0 1 1357 494 L 1411 494  A 7 7 0 0 1 1418 501 L 1418 510  A 7 7 0 0 1 1411 517 L 1357 517  A 7 7 0 0 1 1350 510 L 1350 501  Z " fill-rule="nonzero" fill="#0079fe" stroke="none" />
    <path d="M 1349.5 501  A 7.5 7.5 0 0 1 1357 493.5 L 1411 493.5  A 7.5 7.5 0 0 1 1418.5 501 L 1418.5 510  A 7.5 7.5 0 0 1 1411 517.5 L 1357 517.5  A 7.5 7.5 0 0 1 1349.5 510 L 1349.5 501  Z " stroke-width="1" stroke="#0079fe" fill="none" stroke-opacity="0.654901960784314" />
  </g>
</svg>