<?xml version="1.0" encoding="utf-8"?>
<svg version="1.1" xmlns:xlink="http://www.w3.org/1999/xlink" width="12px" height="12px" xmlns="http://www.w3.org/2000/svg">
  <g transform="matrix(1 0 0 1 -1953 -1242 )">
    <path d="M 1959 1246  C 1960.12 1246  1961 1246.88  1961 1248  C 1961 1249.12  1960.12 1250  1959 1250  C 1957.88 1250  1957 1249.12  1957 1248  C 1957 1246.88  1957.88 1246  1959 1246  Z " fill-rule="nonzero" fill="#ffffff" stroke="none" />
    <path d="M 1959 1244.5  C 1960.96 1244.5  1962.5 1246.04  1962.5 1248  C 1962.5 1249.96  1960.96 1251.5  1959 1251.5  C 1957.04 1251.5  1955.5 1249.96  1955.5 1248  C 1955.5 1246.04  1957.04 1244.5  1959 1244.5  Z " stroke-width="5" stroke="#409eff" fill="none" />
  </g>
</svg>