<?xml version="1.0" encoding="utf-8"?>
<svg version="1.1" xmlns:xlink="http://www.w3.org/1999/xlink" width="20px" height="18px" xmlns="http://www.w3.org/2000/svg">
  <g transform="matrix(1 0 0 1 -319 -6 )">
    <path d="M 15.15625 16.27734375  C 15.3084935897436 16.12890625  15.3846153846154 15.953125  15.3846153846154 15.75  C 15.3846153846154 15.546875  15.3084935897436 15.37109375  15.15625 15.22265625  C 15.0040064102564 15.07421875  14.823717948718 15  14.6153846153846 15  C 14.4070512820513 15  14.2267628205128 15.07421875  14.0745192307692 15.22265625  C 13.9222756410256 15.37109375  13.8461538461538 15.546875  13.8461538461538 15.75  C 13.8461538461538 15.953125  13.9222756410256 16.12890625  14.0745192307692 16.27734375  C 14.2267628205128 16.42578125  14.4070512820513 16.5  14.6153846153846 16.5  C 14.823717948718 16.5  15.0040064102564 16.42578125  15.15625 16.27734375  Z M 18.2331730769231 16.27734375  C 18.3854166666667 16.12890625  18.4615384615385 15.953125  18.4615384615385 15.75  C 18.4615384615385 15.546875  18.3854166666667 15.37109375  18.2331730769231 15.22265625  C 18.0809294871795 15.07421875  17.900641025641 15  17.6923076923077 15  C 17.4839743589744 15  17.3036858974359 15.07421875  17.1514423076923 15.22265625  C 16.9991987179487 15.37109375  16.9230769230769 15.546875  16.9230769230769 15.75  C 16.9230769230769 15.953125  16.9991987179487 16.12890625  17.1514423076923 16.27734375  C 17.3036858974359 16.42578125  17.4839743589744 16.5  17.6923076923077 16.5  C 17.900641025641 16.5  18.0809294871795 16.42578125  18.2331730769231 16.27734375  Z M 19.6634615384615 12.328125  C 19.8878205128205 12.546875  20 12.8125  20 13.125  L 20 16.875  C 20 17.1875  19.8878205128205 17.453125  19.6634615384615 17.671875  C 19.4391025641026 17.890625  19.1666666666667 18  18.8461538461538 18  L 1.15384615384615 18  C 0.833333333333333 18  0.560897435897436 17.890625  0.336538461538462 17.671875  C 0.112179487179487 17.453125  0 17.1875  0 16.875  L 0 13.125  C 0 12.8125  0.112179487179487 12.546875  0.336538461538462 12.328125  C 0.560897435897436 12.109375  0.833333333333333 12  1.15384615384615 12  L 6.74278846153846 12  L 8.36538461538462 13.59375  C 8.83012820512821 14.03125  9.375 14.25  10 14.25  C 10.625 14.25  11.1698717948718 14.03125  11.6346153846154 13.59375  L 13.2692307692308 12  L 18.8461538461538 12  C 19.1666666666667 12  19.4391025641026 12.109375  19.6634615384615 12.328125  Z M 15.3846153846154 6  C 15.7211538461538 6  15.9575320512821 6.15234375  16.09375 6.45703125  C 16.229967948718 6.77734375  16.1738782051282 7.05078125  15.9254807692308 7.27734375  L 10.5408653846154 12.52734375  C 10.3966346153846 12.67578125  10.2163461538462 12.75  10 12.75  C 9.78365384615385 12.75  9.60336538461539 12.67578125  9.45913461538462 12.52734375  L 4.07451923076923 7.27734375  C 3.8261217948718 7.05078125  3.77003205128205 6.77734375  3.90625 6.45703125  C 4.04246794871795 6.15234375  4.27884615384615 6  4.61538461538462 6  L 7.69230769230769 6  L 7.69230769230769 0.749999999999999  C 7.69230769230769 0.546874999999998  7.76842948717949 0.371093749999998  7.92067307692308 0.222656249999999  C 8.07291666666667 0.0742187500000011  8.25320512820513 0  8.46153846153846 0  L 11.5384615384615 0  C 11.7467948717949 0  11.9270833333333 0.0742187500000011  12.0793269230769 0.222656249999999  C 12.2315705128205 0.371093749999998  12.3076923076923 0.546874999999998  12.3076923076923 0.749999999999999  L 12.3076923076923 6  L 15.3846153846154 6  Z " fill-rule="nonzero" fill="#02a7f0" stroke="none" transform="matrix(1 0 0 1 319 6 )" />
  </g>
</svg>