<?xml version="1.0" encoding="utf-8"?>
<svg version="1.1" xmlns:xlink="http://www.w3.org/1999/xlink" width="26px" height="26px" xmlns="http://www.w3.org/2000/svg">
  <g transform="matrix(1 0 0 1 -317 -1610 )">
    <path d="M 330 1611  C 336.72 1611  342 1616.28  342 1623  C 342 1629.72  336.72 1635  330 1635  C 323.28 1635  318 1629.72  318 1623  C 318 1616.28  323.28 1611  330 1611  Z " fill-rule="nonzero" fill="#ffffff" stroke="none" />
    <path d="M 330 1611  C 336.72 1611  342 1616.28  342 1623  C 342 1629.72  336.72 1635  330 1635  C 323.28 1635  318 1629.72  318 1623  C 318 1616.28  323.28 1611  330 1611  Z " stroke-width="2" stroke="#e4e4e4" fill="none" />
  </g>
</svg>