<?xml version="1.0" encoding="utf-8"?>
<svg version="1.1" xmlns:xlink="http://www.w3.org/1999/xlink" width="488px" height="142px" xmlns="http://www.w3.org/2000/svg">
  <g transform="matrix(1 0 0 1 -453 -746 )">
    <path d="M 454 750  A 3 3 0 0 1 457 747 L 937 747  A 3 3 0 0 1 940 750 L 940 884  A 3 3 0 0 1 937 887 L 457 887  A 3 3 0 0 1 454 884 L 454 750  Z " fill-rule="nonzero" fill="#000000" stroke="none" fill-opacity="0.0196078431372549" />
    <path d="M 453.5 750  A 3.5 3.5 0 0 1 457 746.5 L 937 746.5  A 3.5 3.5 0 0 1 940.5 750 L 940.5 884  A 3.5 3.5 0 0 1 937 887.5 L 457 887.5  A 3.5 3.5 0 0 1 453.5 884 L 453.5 750  Z " stroke-width="1" stroke-dasharray="9,4" stroke="#d9d9d9" fill="none" stroke-dashoffset="0.5" />
  </g>
</svg>