<?xml version="1.0" encoding="utf-8"?>
<svg version="1.1" xmlns:xlink="http://www.w3.org/1999/xlink" width="89px" height="25px" xmlns="http://www.w3.org/2000/svg">
  <g transform="matrix(1 0 0 1 -726 -910 )">
    <path d="M 727 918  A 7 7 0 0 1 734 911 L 807 911  A 7 7 0 0 1 814 918 L 814 927  A 7 7 0 0 1 807 934 L 734 934  A 7 7 0 0 1 727 927 L 727 918  Z " fill-rule="nonzero" fill="#81d3f8" stroke="none" fill-opacity="0.168627450980392" />
    <path d="M 726.5 918  A 7.5 7.5 0 0 1 734 910.5 L 807 910.5  A 7.5 7.5 0 0 1 814.5 918 L 814.5 927  A 7.5 7.5 0 0 1 807 934.5 L 734 934.5  A 7.5 7.5 0 0 1 726.5 927 L 726.5 918  Z " stroke-width="1" stroke="#0079fe" fill="none" stroke-opacity="0.654901960784314" />
  </g>
</svg>