<?xml version="1.0" encoding="utf-8"?>
<svg version="1.1" xmlns:xlink="http://www.w3.org/1999/xlink" width="26px" height="26px" xmlns="http://www.w3.org/2000/svg">
  <g transform="matrix(1 0 0 1 -1054 -1339 )">
    <path d="M 1067 1340  C 1073.72 1340  1079 1345.28  1079 1352  C 1079 1358.72  1073.72 1364  1067 1364  C 1060.28 1364  1055 1358.72  1055 1352  C 1055 1345.28  1060.28 1340  1067 1340  Z " fill-rule="nonzero" fill="#0079fe" stroke="none" />
    <path d="M 1067 1340  C 1073.72 1340  1079 1345.28  1079 1352  C 1079 1358.72  1073.72 1364  1067 1364  C 1060.28 1364  1055 1358.72  1055 1352  C 1055 1345.28  1060.28 1340  1067 1340  Z " stroke-width="2" stroke="#0079fe" fill="none" />
  </g>
</svg>