<?xml version="1.0" encoding="utf-8"?>
<svg version="1.1" xmlns:xlink="http://www.w3.org/1999/xlink" width="89px" height="25px" xmlns="http://www.w3.org/2000/svg">
  <g transform="matrix(1 0 0 1 -1463 -1101 )">
    <path d="M 1464 1109  A 7 7 0 0 1 1471 1102 L 1544 1102  A 7 7 0 0 1 1551 1109 L 1551 1118  A 7 7 0 0 1 1544 1125 L 1471 1125  A 7 7 0 0 1 1464 1118 L 1464 1109  Z " fill-rule="nonzero" fill="#0079fe" stroke="none" />
    <path d="M 1463.5 1109  A 7.5 7.5 0 0 1 1471 1101.5 L 1544 1101.5  A 7.5 7.5 0 0 1 1551.5 1109 L 1551.5 1118  A 7.5 7.5 0 0 1 1544 1125.5 L 1471 1125.5  A 7.5 7.5 0 0 1 1463.5 1118 L 1463.5 1109  Z " stroke-width="1" stroke="#0079fe" fill="none" stroke-opacity="0.654901960784314" />
  </g>
</svg>