<?xml version="1.0" encoding="utf-8"?>
<svg version="1.1" xmlns:xlink="http://www.w3.org/1999/xlink" width="30px" height="30px" xmlns="http://www.w3.org/2000/svg">
  <g transform="matrix(1 0 0 1 -24 -1203 )">
    <path d="M 39 1204  C 46.84 1204  53 1210.16  53 1218  C 53 1225.84  46.84 1232  39 1232  C 31.16 1232  25 1225.84  25 1218  C 25 1210.16  31.16 1204  39 1204  Z " fill-rule="nonzero" fill="#0079fe" stroke="none" />
    <path d="M 39 1204  C 46.84 1204  53 1210.16  53 1218  C 53 1225.84  46.84 1232  39 1232  C 31.16 1232  25 1225.84  25 1218  C 25 1210.16  31.16 1204  39 1204  Z " stroke-width="2" stroke="#0079fe" fill="none" />
  </g>
</svg>