<?xml version="1.0" encoding="utf-8"?>
<svg version="1.1" xmlns:xlink="http://www.w3.org/1999/xlink" width="707px" height="142px" xmlns="http://www.w3.org/2000/svg">
  <g transform="matrix(1 0 0 1 -186 -873 )">
    <path d="M 187 877  A 3 3 0 0 1 190 874 L 889 874  A 3 3 0 0 1 892 877 L 892 1011  A 3 3 0 0 1 889 1014 L 190 1014  A 3 3 0 0 1 187 1011 L 187 877  Z " fill-rule="nonzero" fill="#000000" stroke="none" fill-opacity="0.0196078431372549" />
    <path d="M 186.5 877  A 3.5 3.5 0 0 1 190 873.5 L 889 873.5  A 3.5 3.5 0 0 1 892.5 877 L 892.5 1011  A 3.5 3.5 0 0 1 889 1014.5 L 190 1014.5  A 3.5 3.5 0 0 1 186.5 1011 L 186.5 877  Z " stroke-width="1" stroke-dasharray="9,4" stroke="#d9d9d9" fill="none" stroke-dashoffset="0.5" />
  </g>
</svg>