<?xml version="1.0" encoding="utf-8"?>
<svg version="1.1" xmlns:xlink="http://www.w3.org/1999/xlink" width="50px" height="50px" xmlns="http://www.w3.org/2000/svg">
  <g transform="matrix(1 0 0 1 -1679 -101 )">
    <path d="M 1679 101  L 1729 101  L 1729 151  L 1679 151  L 1679 101  " fill-rule="nonzero" fill="#cccccc" stroke="none" />
    <path d="M 1683 105  L 1725 105  L 1725 147  L 1683 147  L 1683 105  " fill-rule="nonzero" fill="#ffffff" stroke="none" />
    <path d="M 1708.75 116  C 1706.65 116  1705 114.35  1705 112.25  C 1705 110.15  1706.65 108.5  1708.75 108.5  C 1710.85 108.5  1712.5 110.15  1712.5 112.25  C 1712.5 114.35  1710.85 116  1708.75 116  " fill-rule="nonzero" fill="#cccccc" stroke="none" />
    <path d="M 1685 146  L 1685 124.55  L 1694.75 114.8  L 1708.4 122.6  L 1716.2 120.65  L 1724 122.6  L 1724 146  L 1685 146  " fill-rule="nonzero" fill="#169bd5" stroke="none" />
  </g>
</svg>