<?xml version="1.0" encoding="utf-8"?>
<svg version="1.1" xmlns:xlink="http://www.w3.org/1999/xlink" width="71px" height="30px" xmlns="http://www.w3.org/2000/svg">
  <defs>
    <mask fill="white" id="clip126">
      <path d="M 15 30  C 6.60000000000002 30  0 23.4  0 15  C 0 6.59999999999999  6.60000000000002 0  15 0  L 29.8305084745763 0  L 56 0  C 64.4 0  71 6.59999999999999  71 15  C 71 23.4  64.4 30  56 30  L 15 30  Z " fill-rule="evenodd" />
    </mask>
  </defs>
  <g transform="matrix(1 0 0 1 -760 -144 )">
    <path d="M 15 30  C 6.60000000000002 30  0 23.4  0 15  C 0 6.59999999999999  6.60000000000002 0  15 0  L 29.8305084745763 0  L 56 0  C 64.4 0  71 6.59999999999999  71 15  C 71 23.4  64.4 30  56 30  L 15 30  Z " fill-rule="nonzero" fill="#ffffff" stroke="none" transform="matrix(1 0 0 1 760 144 )" />
    <path d="M 15 30  C 6.60000000000002 30  0 23.4  0 15  C 0 6.59999999999999  6.60000000000002 0  15 0  L 29.8305084745763 0  L 56 0  C 64.4 0  71 6.59999999999999  71 15  C 71 23.4  64.4 30  56 30  L 15 30  Z " stroke-width="2" stroke="#3498db" fill="none" transform="matrix(1 0 0 1 760 144 )" mask="url(#clip126)" />
  </g>
</svg>