<?xml version="1.0" encoding="utf-8"?>
<svg version="1.1" xmlns:xlink="http://www.w3.org/1999/xlink" width="70px" height="25px" xmlns="http://www.w3.org/2000/svg">
  <g transform="matrix(1 0 0 1 -35 -258 )">
    <path d="M 36 266  A 7 7 0 0 1 43 259 L 97 259  A 7 7 0 0 1 104 266 L 104 275  A 7 7 0 0 1 97 282 L 43 282  A 7 7 0 0 1 36 275 L 36 266  Z " fill-rule="nonzero" fill="#0079fe" stroke="none" />
    <path d="M 35.5 266  A 7.5 7.5 0 0 1 43 258.5 L 97 258.5  A 7.5 7.5 0 0 1 104.5 266 L 104.5 275  A 7.5 7.5 0 0 1 97 282.5 L 43 282.5  A 7.5 7.5 0 0 1 35.5 275 L 35.5 266  Z " stroke-width="1" stroke="#0079fe" fill="none" stroke-opacity="0.654901960784314" />
  </g>
</svg>