<?xml version="1.0" encoding="utf-8"?>
<svg version="1.1" xmlns:xlink="http://www.w3.org/1999/xlink" width="331px" height="244px" xmlns="http://www.w3.org/2000/svg">
  <g transform="matrix(1 0 0 1 -65 -1086 )">
    <path d="M 66 1090  A 3 3 0 0 1 69 1087 L 392 1087  A 3 3 0 0 1 395 1090 L 395 1326  A 3 3 0 0 1 392 1329 L 69 1329  A 3 3 0 0 1 66 1326 L 66 1090  Z " fill-rule="nonzero" fill="#000000" stroke="none" fill-opacity="0.0196078431372549" />
    <path d="M 65.5 1090  A 3.5 3.5 0 0 1 69 1086.5 L 392 1086.5  A 3.5 3.5 0 0 1 395.5 1090 L 395.5 1326  A 3.5 3.5 0 0 1 392 1329.5 L 69 1329.5  A 3.5 3.5 0 0 1 65.5 1326 L 65.5 1090  Z " stroke-width="1" stroke-dasharray="9,4" stroke="#d9d9d9" fill="none" stroke-dashoffset="0.5" />
  </g>
</svg>