<?xml version="1.0" encoding="utf-8"?>
<svg version="1.1" xmlns:xlink="http://www.w3.org/1999/xlink" width="707px" height="142px" xmlns="http://www.w3.org/2000/svg">
  <g transform="matrix(1 0 0 1 -143 -993 )">
    <path d="M 144 997  A 3 3 0 0 1 147 994 L 846 994  A 3 3 0 0 1 849 997 L 849 1131  A 3 3 0 0 1 846 1134 L 147 1134  A 3 3 0 0 1 144 1131 L 144 997  Z " fill-rule="nonzero" fill="#000000" stroke="none" fill-opacity="0.0196078431372549" />
    <path d="M 143.5 997  A 3.5 3.5 0 0 1 147 993.5 L 846 993.5  A 3.5 3.5 0 0 1 849.5 997 L 849.5 1131  A 3.5 3.5 0 0 1 846 1134.5 L 147 1134.5  A 3.5 3.5 0 0 1 143.5 1131 L 143.5 997  Z " stroke-width="1" stroke-dasharray="9,4" stroke="#d9d9d9" fill="none" stroke-dashoffset="0.5" />
  </g>
</svg>