<?xml version="1.0" encoding="utf-8"?>
<svg version="1.1" xmlns:xlink="http://www.w3.org/1999/xlink" width="30px" height="30px" xmlns="http://www.w3.org/2000/svg">
  <g transform="matrix(1 0 0 1 -451 -682 )">
    <path d="M 466 683  C 473.84 683  480 689.16  480 697  C 480 704.84  473.84 711  466 711  C 458.16 711  452 704.84  452 697  C 452 689.16  458.16 683  466 683  Z " fill-rule="nonzero" fill="#ffffff" stroke="none" />
    <path d="M 466 683  C 473.84 683  480 689.16  480 697  C 480 704.84  473.84 711  466 711  C 458.16 711  452 704.84  452 697  C 452 689.16  458.16 683  466 683  Z " stroke-width="2" stroke="#e4e4e4" fill="none" />
  </g>
</svg>