<?xml version="1.0" encoding="utf-8"?>
<svg version="1.1" xmlns:xlink="http://www.w3.org/1999/xlink" width="80px" height="35px" xmlns="http://www.w3.org/2000/svg">
  <g transform="matrix(1 0 0 1 -1034 -631 )">
    <path d="M 1034.5 636  A 4.5 4.5 0 0 1 1039 631.5 L 1109 631.5  A 4.5 4.5 0 0 1 1113.5 636 L 1113.5 661  A 4.5 4.5 0 0 1 1109 665.5 L 1039 665.5  A 4.5 4.5 0 0 1 1034.5 661 L 1034.5 636  Z " fill-rule="nonzero" fill="#f0f7ff" stroke="none" />
    <path d="M 1034.5 636  A 4.5 4.5 0 0 1 1039 631.5 L 1109 631.5  A 4.5 4.5 0 0 1 1113.5 636 L 1113.5 661  A 4.5 4.5 0 0 1 1109 665.5 L 1039 665.5  A 4.5 4.5 0 0 1 1034.5 661 L 1034.5 636  Z " stroke-width="1" stroke="#409eff" fill="none" />
  </g>
</svg>