<?xml version="1.0" encoding="utf-8"?>
<svg version="1.1" xmlns:xlink="http://www.w3.org/1999/xlink" width="80px" height="35px" xmlns="http://www.w3.org/2000/svg">
  <g transform="matrix(1 0 0 1 -1034 -631 )">
    <path d="M 1035 636  A 4 4 0 0 1 1039 632 L 1109 632  A 4 4 0 0 1 1113 636 L 1113 661  A 4 4 0 0 1 1109 665 L 1039 665  A 4 4 0 0 1 1035 661 L 1035 636  Z " fill-rule="nonzero" fill="#f0f7ff" stroke="none" />
    <path d="M 1034.5 636  A 4.5 4.5 0 0 1 1039 631.5 L 1109 631.5  A 4.5 4.5 0 0 1 1113.5 636 L 1113.5 661  A 4.5 4.5 0 0 1 1109 665.5 L 1039 665.5  A 4.5 4.5 0 0 1 1034.5 661 L 1034.5 636  Z " stroke-width="1" stroke="#7abbff" fill="none" stroke-opacity="0.996078431372549" />
  </g>
</svg>