<?xml version="1.0" encoding="utf-8"?>
<svg version="1.1" xmlns:xlink="http://www.w3.org/1999/xlink" width="80px" height="30px" xmlns="http://www.w3.org/2000/svg">
  <g transform="matrix(1 0 0 1 -2379 169 )">
    <path d="M 2379.5 -166  A 2.5 2.5 0 0 1 2382 -168.5 L 2456 -168.5  A 2.5 2.5 0 0 1 2458.5 -166 L 2458.5 -142  A 2.5 2.5 0 0 1 2456 -139.5 L 2382 -139.5  A 2.5 2.5 0 0 1 2379.5 -142 L 2379.5 -166  Z " fill-rule="nonzero" fill="#f9f9f9" stroke="none" />
    <path d="M 2379.5 -166  A 2.5 2.5 0 0 1 2382 -168.5 L 2456 -168.5  A 2.5 2.5 0 0 1 2458.5 -166 L 2458.5 -142  A 2.5 2.5 0 0 1 2456 -139.5 L 2382 -139.5  A 2.5 2.5 0 0 1 2379.5 -142 L 2379.5 -166  Z " stroke-width="1" stroke="#e4e4e4" fill="none" />
  </g>
</svg>