<?xml version="1.0" encoding="utf-8"?>
<svg version="1.1" xmlns:xlink="http://www.w3.org/1999/xlink" width="80px" height="30px" xmlns="http://www.w3.org/2000/svg">
  <g transform="matrix(1 0 0 1 -2276 -948 )">
    <path d="M 2277 951  A 2 2 0 0 1 2279 949 L 2353 949  A 2 2 0 0 1 2355 951 L 2355 975  A 2 2 0 0 1 2353 977 L 2279 977  A 2 2 0 0 1 2277 975 L 2277 951  Z " fill-rule="nonzero" fill="#f0f7ff" stroke="none" />
    <path d="M 2276.5 951  A 2.5 2.5 0 0 1 2279 948.5 L 2353 948.5  A 2.5 2.5 0 0 1 2355.5 951 L 2355.5 975  A 2.5 2.5 0 0 1 2353 977.5 L 2279 977.5  A 2.5 2.5 0 0 1 2276.5 975 L 2276.5 951  Z " stroke-width="1" stroke="#7abbff" fill="none" stroke-opacity="0.996078431372549" />
  </g>
</svg>