<?xml version="1.0" encoding="utf-8"?>
<svg version="1.1" xmlns:xlink="http://www.w3.org/1999/xlink" width="80px" height="30px" xmlns="http://www.w3.org/2000/svg">
  <g transform="matrix(1 0 0 1 -2379 169 )">
    <path d="M 2380 -166  A 2 2 0 0 1 2382 -168 L 2456 -168  A 2 2 0 0 1 2458 -166 L 2458 -142  A 2 2 0 0 1 2456 -140 L 2382 -140  A 2 2 0 0 1 2380 -142 L 2380 -166  Z " fill-rule="nonzero" fill="#f0f7ff" stroke="none" />
    <path d="M 2379.5 -166  A 2.5 2.5 0 0 1 2382 -168.5 L 2456 -168.5  A 2.5 2.5 0 0 1 2458.5 -166 L 2458.5 -142  A 2.5 2.5 0 0 1 2456 -139.5 L 2382 -139.5  A 2.5 2.5 0 0 1 2379.5 -142 L 2379.5 -166  Z " stroke-width="1" stroke="#7abbff" fill="none" stroke-opacity="0.996078431372549" />
  </g>
</svg>