<?xml version="1.0" encoding="utf-8"?>
<svg version="1.1" xmlns:xlink="http://www.w3.org/1999/xlink" width="12px" height="12px" viewBox="690 88.5  12 12" xmlns="http://www.w3.org/2000/svg">
  <path d="M 696 88.5  C 699.36 88.5  702 91.14  702 94.5  C 702 97.86  699.36 100.5  696 100.5  C 692.64 100.5  690 97.86  690 94.5  C 690 91.14  692.64 88.5  696 88.5  Z " fill-rule="nonzero" fill="#ffffff" stroke="none" />
  <path d="M 696 89  C 699.08 89  701.5 91.42  701.5 94.5  C 701.5 97.58  699.08 100  696 100  C 692.92 100  690.5 97.58  690.5 94.5  C 690.5 91.42  692.92 89  696 89  Z " stroke-width="1" stroke="#f2f2f2" fill="none" />
  <path d="M 696 97.5  C 694.32 97.5  693 96.18  693 94.5  C 693 92.82  694.32 91.5  696 91.5  C 697.68 91.5  699 92.82  699 94.5  C 699 96.18  697.68 97.5  696 97.5  " fill-rule="nonzero" fill="#f2f2f2" stroke="none" />
</svg>