<?xml version="1.0" encoding="utf-8"?>
<svg version="1.1" xmlns:xlink="http://www.w3.org/1999/xlink" width="30px" height="30px" xmlns="http://www.w3.org/2000/svg">
  <g transform="matrix(1 0 0 1 -1069 -606 )">
    <path d="M 1084 607  C 1091.84 607  1098 613.16  1098 621  C 1098 628.84  1091.84 635  1084 635  C 1076.16 635  1070 628.84  1070 621  C 1070 613.16  1076.16 607  1084 607  Z " fill-rule="nonzero" fill="#0079fe" stroke="none" />
    <path d="M 1084 607  C 1091.84 607  1098 613.16  1098 621  C 1098 628.84  1091.84 635  1084 635  C 1076.16 635  1070 628.84  1070 621  C 1070 613.16  1076.16 607  1084 607  Z " stroke-width="2" stroke="#0079fe" fill="none" />
  </g>
</svg>