<?xml version="1.0" encoding="utf-8"?>
<svg version="1.1" xmlns:xlink="http://www.w3.org/1999/xlink" width="12px" height="12px" viewBox="239 662.5  12 12" xmlns="http://www.w3.org/2000/svg">
  <path d="M 245 662.5  C 248.36 662.5  251 665.14  251 668.5  C 251 671.86  248.36 674.5  245 674.5  C 241.64 674.5  239 671.86  239 668.5  C 239 665.14  241.64 662.5  245 662.5  Z " fill-rule="nonzero" fill="#f0f0f0" stroke="none" />
  <path d="M 245 663  C 248.08 663  250.5 665.42  250.5 668.5  C 250.5 671.58  248.08 674  245 674  C 241.92 674  239.5 671.58  239.5 668.5  C 239.5 665.42  241.92 663  245 663  Z " stroke-width="1" stroke="#f2f2f2" fill="none" />
  <path d="M 245 671.5  C 243.32 671.5  242 670.18  242 668.5  C 242 666.82  243.32 665.5  245 665.5  C 246.68 665.5  248 666.82  248 668.5  C 248 670.18  246.68 671.5  245 671.5  " fill-rule="nonzero" fill="#f2f2f2" stroke="none" />
</svg>