<?xml version="1.0" encoding="utf-8"?>
<svg version="1.1" xmlns:xlink="http://www.w3.org/1999/xlink" width="12px" height="12px" viewBox="239 751.5  12 12" xmlns="http://www.w3.org/2000/svg">
  <path d="M 245 751.5  C 248.36 751.5  251 754.14  251 757.5  C 251 760.86  248.36 763.5  245 763.5  C 241.64 763.5  239 760.86  239 757.5  C 239 754.14  241.64 751.5  245 751.5  Z " fill-rule="nonzero" fill="#ffffff" stroke="none" />
  <path d="M 245 752  C 248.08 752  250.5 754.42  250.5 757.5  C 250.5 760.58  248.08 763  245 763  C 241.92 763  239.5 760.58  239.5 757.5  C 239.5 754.42  241.92 752  245 752  Z " stroke-width="1" stroke="#f2f2f2" fill="none" />
  <path d="M 245 760.5  C 243.32 760.5  242 759.18  242 757.5  C 242 755.82  243.32 754.5  245 754.5  C 246.68 754.5  248 755.82  248 757.5  C 248 759.18  246.68 760.5  245 760.5  " fill-rule="nonzero" fill="#f2f2f2" stroke="none" />
</svg>