<?xml version="1.0" encoding="utf-8"?>
<svg version="1.1" xmlns:xlink="http://www.w3.org/1999/xlink" width="12px" height="12px" viewBox="239 789  12 12" xmlns="http://www.w3.org/2000/svg">
  <path d="M 245 789  C 248.36 789  251 791.64  251 795  C 251 798.36  248.36 801  245 801  C 241.64 801  239 798.36  239 795  C 239 791.64  241.64 789  245 789  Z " fill-rule="nonzero" fill="#ffffff" stroke="none" />
  <path d="M 245 789.5  C 248.08 789.5  250.5 791.92  250.5 795  C 250.5 798.08  248.08 800.5  245 800.5  C 241.92 800.5  239.5 798.08  239.5 795  C 239.5 791.92  241.92 789.5  245 789.5  Z " stroke-width="1" stroke="#f2f2f2" fill="none" />
  <path d="M 245 798  C 243.32 798  242 796.68  242 795  C 242 793.32  243.32 792  245 792  C 246.68 792  248 793.32  248 795  C 248 796.68  246.68 798  245 798  " fill-rule="nonzero" fill="#f2f2f2" stroke="none" />
</svg>