<?xml version="1.0" encoding="utf-8"?>
<svg version="1.1" xmlns:xlink="http://www.w3.org/1999/xlink" width="707px" height="142px" xmlns="http://www.w3.org/2000/svg">
  <g transform="matrix(1 0 0 1 -291 -229 )">
    <path d="M 292 233  A 3 3 0 0 1 295 230 L 994 230  A 3 3 0 0 1 997 233 L 997 367  A 3 3 0 0 1 994 370 L 295 370  A 3 3 0 0 1 292 367 L 292 233  Z " fill-rule="nonzero" fill="#000000" stroke="none" fill-opacity="0.0196078431372549" />
    <path d="M 291.5 233  A 3.5 3.5 0 0 1 295 229.5 L 994 229.5  A 3.5 3.5 0 0 1 997.5 233 L 997.5 367  A 3.5 3.5 0 0 1 994 370.5 L 295 370.5  A 3.5 3.5 0 0 1 291.5 367 L 291.5 233  Z " stroke-width="1" stroke-dasharray="9,4" stroke="#d9d9d9" fill="none" stroke-dashoffset="0.5" />
  </g>
</svg>