<?xml version="1.0" encoding="utf-8"?>
<svg version="1.1" xmlns:xlink="http://www.w3.org/1999/xlink" width="15px" height="27px" xmlns="http://www.w3.org/2000/svg">
  <g transform="matrix(1 0 0 1 -867 -583 )">
    <path d="M 14.7422680412371 12.877755511022  C 14.914089347079 13.0581162324649  15 13.2655310621242  15 13.5  C 15 13.7344689378758  14.914089347079 13.9418837675351  14.7422680412371 14.122244488978  L 2.7319587628866 26.7294589178357  C 2.56013745704467 26.9098196392786  2.36254295532646 27  2.13917525773196 27  C 1.91580756013746 27  1.71821305841924 26.9098196392786  1.54639175257732 26.7294589178357  L 0.257731958762887 25.376753507014  C 0.0859106529209623 25.1963927855711  0 24.9889779559118  0 24.7545090180361  C 0 24.5200400801603  0.0859106529209623 24.312625250501  0.257731958762887 24.1322645290581  L 10.3865979381443 13.5  L 0.257731958762887 2.86773547094188  C 0.0859106529209623 2.687374749499  0 2.47995991983968  0 2.24549098196393  C 0 2.01102204408817  0.0859106529209623 1.80360721442885  0.257731958762887 1.62324649298597  L 1.54639175257732 0.270541082164329  C 1.71821305841924 0.090180360721442  1.91580756013746 0  2.13917525773196 0  C 2.36254295532646 0  2.56013745704467 0.090180360721442  2.7319587628866 0.270541082164329  L 14.7422680412371 12.877755511022  Z " fill-rule="nonzero" fill="#d7d7d7" stroke="none" transform="matrix(1 0 0 1 867 583 )" />
  </g>
</svg>