<?xml version="1.0" encoding="utf-8"?>
<svg version="1.1" xmlns:xlink="http://www.w3.org/1999/xlink" width="40px" height="38px" xmlns="http://www.w3.org/2000/svg">
  <g transform="matrix(1 0 0 1 -1442 -928 )">
    <path d="M 40 3.61904761904762  C 40 1.61952380952381  38.3727272727273 0  36.3636363636364 0  L 21.8181818181818 0  L 21.8181818181818 22.7746666666667  L 25.9872727272727 18.6254285714286  C 26.6981818181818 17.9179047619048  27.8472727272727 17.9179047619048  28.5581818181818 18.6254285714286  C 29.2690909090909 19.3329523809524  29.2690909090909 20.4765714285714  28.5581818181818 21.1840952380952  L 21.2854545454545 28.4221904761905  C 20.9309090909091 28.7750476190476  20.4654545454545 28.9523809523809  20 28.9523809523809  C 19.5345454545455 28.9523809523809  19.0690909090909 28.7750476190476  18.7145454545455 28.4221904761905  L 11.4418181818182 21.1840952380952  C 10.7309090909091 20.4765714285714  10.7309090909091 19.3329523809524  11.4418181818182 18.6254285714286  C 12.1527272727273 17.9179047619048  13.3018181818182 17.9179047619048  14.0127272727273 18.6254285714286  L 18.1818181818182 22.7746666666667  L 18.1818181818182 0  L 3.63636363636364 0  C 1.62727272727273 0  0 1.61952380952381  0 3.61904761904762  L 0 34.3809523809524  C 0 36.3804761904762  1.62727272727273 38  3.63636363636364 38  L 36.3636363636364 38  C 38.3727272727273 38  40 36.3804761904762  40 34.3809523809524  L 40 3.61904761904762  Z " fill-rule="nonzero" fill="#ffffff" stroke="none" transform="matrix(1 0 0 1 1442 928 )" />
  </g>
</svg>