<?xml version="1.0" encoding="utf-8"?>
<svg version="1.1" xmlns:xlink="http://www.w3.org/1999/xlink" width="47px" height="35px" xmlns="http://www.w3.org/2000/svg">
  <g transform="matrix(1 0 0 1 -1711 -111 )">
    <path d="M 1711 111  L 1758 111  L 1758 146  L 1711 146  L 1711 111  " fill-rule="nonzero" fill="#cccccc" stroke="none" />
    <path d="M 1713 113  L 1756 113  L 1756 144  L 1713 144  L 1713 113  " fill-rule="nonzero" fill="#ffffff" stroke="none" />
    <path d="M 1738.065 121.5  C 1736.595 121.5  1735.44 120.345  1735.44 118.875  C 1735.44 117.405  1736.595 116.25  1738.065 116.25  C 1739.535 116.25  1740.69 117.405  1740.69 118.875  C 1740.69 120.345  1739.535 121.5  1738.065 121.5  " fill-rule="nonzero" fill="#cccccc" stroke="none" />
    <path d="M 1714 143  L 1714 127.05  L 1724.25 119.8  L 1738.6 130.042553191489  L 1746.8 124.15  L 1755 130.042553191489  L 1755 143  L 1714 143  " fill-rule="nonzero" fill="#169bd5" stroke="none" />
  </g>
</svg>