<?xml version="1.0" encoding="utf-8"?>
<svg version="1.1" xmlns:xlink="http://www.w3.org/1999/xlink" width="30px" height="30px" xmlns="http://www.w3.org/2000/svg">
  <g transform="matrix(1 0 0 1 -188 -1678 )">
    <path d="M 203 1679  C 210.84 1679  217 1685.16  217 1693  C 217 1700.84  210.84 1707  203 1707  C 195.16 1707  189 1700.84  189 1693  C 189 1685.16  195.16 1679  203 1679  Z " fill-rule="nonzero" fill="#ffffff" stroke="none" />
    <path d="M 203 1679  C 210.84 1679  217 1685.16  217 1693  C 217 1700.84  210.84 1707  203 1707  C 195.16 1707  189 1700.84  189 1693  C 189 1685.16  195.16 1679  203 1679  Z " stroke-width="2" stroke="#cccccc" fill="none" />
  </g>
</svg>