<?xml version="1.0" encoding="utf-8"?>
<svg version="1.1" xmlns:xlink="http://www.w3.org/1999/xlink" width="707px" height="142px" xmlns="http://www.w3.org/2000/svg">
  <g transform="matrix(1 0 0 1 -231 -1160 )">
    <path d="M 232 1164  A 3 3 0 0 1 235 1161 L 934 1161  A 3 3 0 0 1 937 1164 L 937 1298  A 3 3 0 0 1 934 1301 L 235 1301  A 3 3 0 0 1 232 1298 L 232 1164  Z " fill-rule="nonzero" fill="#000000" stroke="none" fill-opacity="0.0196078431372549" />
    <path d="M 231.5 1164  A 3.5 3.5 0 0 1 235 1160.5 L 934 1160.5  A 3.5 3.5 0 0 1 937.5 1164 L 937.5 1298  A 3.5 3.5 0 0 1 934 1301.5 L 235 1301.5  A 3.5 3.5 0 0 1 231.5 1298 L 231.5 1164  Z " stroke-width="1" stroke-dasharray="9,4" stroke="#d9d9d9" fill="none" stroke-dashoffset="0.5" />
  </g>
</svg>