<?xml version="1.0" encoding="utf-8"?>
<svg version="1.1" xmlns:xlink="http://www.w3.org/1999/xlink" width="331px" height="104px" xmlns="http://www.w3.org/2000/svg">
  <g transform="matrix(1 0 0 1 -1333 -2911 )">
    <path d="M 1334 2915  A 3 3 0 0 1 1337 2912 L 1660 2912  A 3 3 0 0 1 1663 2915 L 1663 3011  A 3 3 0 0 1 1660 3014 L 1337 3014  A 3 3 0 0 1 1334 3011 L 1334 2915  Z " fill-rule="nonzero" fill="#000000" stroke="none" fill-opacity="0.0196078431372549" />
    <path d="M 1333.5 2915  A 3.5 3.5 0 0 1 1337 2911.5 L 1660 2911.5  A 3.5 3.5 0 0 1 1663.5 2915 L 1663.5 3011  A 3.5 3.5 0 0 1 1660 3014.5 L 1337 3014.5  A 3.5 3.5 0 0 1 1333.5 3011 L 1333.5 2915  Z " stroke-width="1" stroke-dasharray="9,4" stroke="#d9d9d9" fill="none" stroke-dashoffset="0.5" />
  </g>
</svg>