<?xml version="1.0" encoding="utf-8"?>
<svg version="1.1" xmlns:xlink="http://www.w3.org/1999/xlink" width="14px" height="14px" xmlns="http://www.w3.org/2000/svg">
  <g transform="matrix(1 0 0 1 -1652 -126 )">
    <path d="M 1659 127  C 1662.36 127  1665 129.64  1665 133  C 1665 136.36  1662.36 139  1659 139  C 1655.64 139  1653 136.36  1653 133  C 1653 129.64  1655.64 127  1659 127  Z " fill-rule="nonzero" fill="#0d0d51" stroke="none" />
    <path d="M 1659 127  C 1662.36 127  1665 129.64  1665 133  C 1665 136.36  1662.36 139  1659 139  C 1655.64 139  1653 136.36  1653 133  C 1653 129.64  1655.64 127  1659 127  Z " stroke-width="2" stroke="#ffffff" fill="none" />
  </g>
</svg>