<?xml version="1.0" encoding="utf-8"?>
<svg version="1.1" xmlns:xlink="http://www.w3.org/1999/xlink" width="70px" height="25px" xmlns="http://www.w3.org/2000/svg">
  <g transform="matrix(1 0 0 1 -253 -591 )">
    <path d="M 254 599  A 7 7 0 0 1 261 592 L 315 592  A 7 7 0 0 1 322 599 L 322 608  A 7 7 0 0 1 315 615 L 261 615  A 7 7 0 0 1 254 608 L 254 599  Z " fill-rule="nonzero" fill="#0079fe" stroke="none" />
    <path d="M 253.5 599  A 7.5 7.5 0 0 1 261 591.5 L 315 591.5  A 7.5 7.5 0 0 1 322.5 599 L 322.5 608  A 7.5 7.5 0 0 1 315 615.5 L 261 615.5  A 7.5 7.5 0 0 1 253.5 608 L 253.5 599  Z " stroke-width="1" stroke="#0079fe" fill="none" stroke-opacity="0.654901960784314" />
  </g>
</svg>