<?xml version="1.0" encoding="utf-8"?>
<svg version="1.1" xmlns:xlink="http://www.w3.org/1999/xlink" width="89px" height="25px" xmlns="http://www.w3.org/2000/svg">
  <g transform="matrix(1 0 0 1 -746 -694 )">
    <path d="M 747 697  A 2 2 0 0 1 749 695 L 832 695  A 2 2 0 0 1 834 697 L 834 716  A 2 2 0 0 1 832 718 L 749 718  A 2 2 0 0 1 747 716 L 747 697  Z " fill-rule="nonzero" fill="#0079fe" stroke="none" />
    <path d="M 746.5 697  A 2.5 2.5 0 0 1 749 694.5 L 832 694.5  A 2.5 2.5 0 0 1 834.5 697 L 834.5 716  A 2.5 2.5 0 0 1 832 718.5 L 749 718.5  A 2.5 2.5 0 0 1 746.5 716 L 746.5 697  Z " stroke-width="1" stroke="#0079fe" fill="none" stroke-opacity="0.654901960784314" />
  </g>
</svg>