<?xml version="1.0" encoding="utf-8"?>
<svg version="1.1" xmlns:xlink="http://www.w3.org/1999/xlink" width="8px" height="6px" xmlns="http://www.w3.org/2000/svg">
  <g transform="matrix(1 0 0 1 -403 -11 )">
    <path d="M 7.82788044897961 5.79696210459184  C 7.95060410204079 5.70491937244898  7.95060410204079 5.55550361479592  7.82788044897961 5.46346870408163  L 4.49486774489795 2.96370917602044  L 7.76331818367339 0.512324357142859  C 7.88663702040814 0.419819563775519  7.88663702040814 0.269949581632631  7.76331818367339 0.177452625000001  C 7.63998889795926 0.0849634974489675  7.44000563265308 0.0849634974489675  7.31682254081632 0.177452625000001  L 4.04837210204073 2.62882961479593  L 0.715317622448993 0.12903092602042  C 0.592604418367273 0.0369960229591868  0.39352959183672 0.0369960229591868  0.270816377551 0.12903092602042  C 0.147956979591754 0.221065829081624  0.147956979591754 0.370473757653059  0.270816377551 0.462516497449002  L 3.60380820408159 2.96226036734694  L 0.172505897959203 5.53576059183675  C 0.0492497142856791 5.62825755612243  0.0492497142856791 5.77811970153061  0.172505897959203 5.87061665816324  C 0.295835183673489 5.96312145153061  0.495745357142823 5.96312145153061  0.61907463265311 5.87061665816324  L 4.05031429591835 3.29714775765305  L 7.3834000918367 5.79696210459184  C 7.50611329591834 5.88899700765305  7.70502105102037 5.88899700765305  7.82788044897961 5.79696210459184  Z " fill-rule="nonzero" fill="#868686" stroke="none" transform="matrix(1 0 0 1 403 11 )" />
  </g>
</svg>