<?xml version="1.0" encoding="utf-8"?>
<svg version="1.1" xmlns:xlink="http://www.w3.org/1999/xlink" width="425px" height="60px" xmlns="http://www.w3.org/2000/svg">
  <g transform="matrix(1 0 0 1 -153 -245 )">
    <path d="M 154 250  A 4 4 0 0 1 158 246 L 573 246  A 4 4 0 0 1 577 250 L 577 300  A 4 4 0 0 1 573 304 L 158 304  A 4 4 0 0 1 154 300 L 154 250  Z " fill-rule="nonzero" fill="#0079fe" stroke="none" />
    <path d="M 153.5 250  A 4.5 4.5 0 0 1 158 245.5 L 573 245.5  A 4.5 4.5 0 0 1 577.5 250 L 577.5 300  A 4.5 4.5 0 0 1 573 304.5 L 158 304.5  A 4.5 4.5 0 0 1 153.5 300 L 153.5 250  Z " stroke-width="1" stroke="#0079fe" fill="none" stroke-opacity="0.654901960784314" />
  </g>
</svg>