<?xml version="1.0" encoding="utf-8"?>
<svg version="1.1" xmlns:xlink="http://www.w3.org/1999/xlink" width="130px" height="130px" xmlns="http://www.w3.org/2000/svg">
  <g>
    <path d="M 1 4  A 3 3 0 0 1 4 1 L 126 1  A 3 3 0 0 1 129 4 L 129 126  A 3 3 0 0 1 126 129 L 4 129  A 3 3 0 0 1 1 126 L 1 4  Z " fill-rule="nonzero" fill="#ffffff" stroke="none" />
    <path d="M 0.5 4  A 3.5 3.5 0 0 1 4 0.5 L 126 0.5  A 3.5 3.5 0 0 1 129.5 4 L 129.5 126  A 3.5 3.5 0 0 1 126 129.5 L 4 129.5  A 3.5 3.5 0 0 1 0.5 126 L 0.5 4  Z " stroke-width="1" stroke-dasharray="3,1" stroke="#40a9ff" fill="none" stroke-dashoffset="0.5" />
  </g>
</svg>