<?xml version="1.0" encoding="utf-8"?>
<svg version="1.1" xmlns:xlink="http://www.w3.org/1999/xlink" width="488px" height="142px" xmlns="http://www.w3.org/2000/svg">
  <g transform="matrix(1 0 0 1 -1190 -937 )">
    <path d="M 1191 941  A 3 3 0 0 1 1194 938 L 1674 938  A 3 3 0 0 1 1677 941 L 1677 1075  A 3 3 0 0 1 1674 1078 L 1194 1078  A 3 3 0 0 1 1191 1075 L 1191 941  Z " fill-rule="nonzero" fill="#000000" stroke="none" fill-opacity="0.0196078431372549" />
    <path d="M 1190.5 941  A 3.5 3.5 0 0 1 1194 937.5 L 1674 937.5  A 3.5 3.5 0 0 1 1677.5 941 L 1677.5 1075  A 3.5 3.5 0 0 1 1674 1078.5 L 1194 1078.5  A 3.5 3.5 0 0 1 1190.5 1075 L 1190.5 941  Z " stroke-width="1" stroke-dasharray="9,4" stroke="#d9d9d9" fill="none" stroke-dashoffset="0.5" />
  </g>
</svg>