<?xml version="1.0" encoding="utf-8"?>
<svg version="1.1" xmlns:xlink="http://www.w3.org/1999/xlink" width="30px" height="30px" xmlns="http://www.w3.org/2000/svg">
  <g transform="matrix(1 0 0 1 -24 -1644 )">
    <path d="M 39 1645  C 46.84 1645  53 1651.16  53 1659  C 53 1666.84  46.84 1673  39 1673  C 31.16 1673  25 1666.84  25 1659  C 25 1651.16  31.16 1645  39 1645  Z " fill-rule="nonzero" fill="#ffffff" stroke="none" />
    <path d="M 39 1645  C 46.84 1645  53 1651.16  53 1659  C 53 1666.84  46.84 1673  39 1673  C 31.16 1673  25 1666.84  25 1659  C 25 1651.16  31.16 1645  39 1645  Z " stroke-width="2" stroke="#e4e4e4" fill="none" />
  </g>
</svg>