<?xml version="1.0" encoding="utf-8"?>
<svg version="1.1" xmlns:xlink="http://www.w3.org/1999/xlink" width="70px" height="25px" xmlns="http://www.w3.org/2000/svg">
  <g transform="matrix(1 0 0 1 -39 -500 )">
    <path d="M 40 508  A 7 7 0 0 1 47 501 L 101 501  A 7 7 0 0 1 108 508 L 108 517  A 7 7 0 0 1 101 524 L 47 524  A 7 7 0 0 1 40 517 L 40 508  Z " fill-rule="nonzero" fill="#0079fe" stroke="none" />
    <path d="M 39.5 508  A 7.5 7.5 0 0 1 47 500.5 L 101 500.5  A 7.5 7.5 0 0 1 108.5 508 L 108.5 517  A 7.5 7.5 0 0 1 101 524.5 L 47 524.5  A 7.5 7.5 0 0 1 39.5 517 L 39.5 508  Z " stroke-width="1" stroke="#0079fe" fill="none" stroke-opacity="0.654901960784314" />
  </g>
</svg>