<?xml version="1.0" encoding="utf-8"?>
<svg version="1.1" xmlns:xlink="http://www.w3.org/1999/xlink" width="23px" height="11px" xmlns="http://www.w3.org/2000/svg">
  <g transform="matrix(1 0 0 1 -1741 -243 )">
    <path d="M 22.7695390781563 8.99656357388316  C 22.9231796927188 9.1225658648339  23 9.26746849942726  23 9.43127147766323  C 23 9.5950744558992  22.9231796927188 9.73997709049255  22.7695390781563 9.8659793814433  L 21.6172344689379 10.8109965635739  C 21.4635938543754 10.9369988545246  21.2869071476286 11  21.0871743486974 11  C 20.8874415497662 11  20.7107548430194 10.9369988545246  20.5571142284569 10.8109965635739  L 11.5 3.38316151202749  L 2.44288577154309 10.8109965635739  C 2.28924515698063 10.9369988545246  2.1125584502338 11  1.91282565130261 11  C 1.71309285237141 11  1.53640614562458 10.9369988545246  1.38276553106212 10.8109965635739  L 0.230460921843687 9.8659793814433  C 0.0768203072812294 9.73997709049255  0 9.5950744558992  0 9.43127147766323  C 0 9.26746849942726  0.0768203072812294 9.1225658648339  0.230460921843687 8.99656357388316  L 10.9699398797595 0.189003436426117  C 11.123580494322 0.0630011454753708  11.3002672010688 0  11.5 0  C 11.6997327989312 0  11.876419505678 0.0630011454753708  12.0300601202405 0.189003436426117  L 22.7695390781563 8.99656357388316  Z " fill-rule="nonzero" fill="#000000" stroke="none" transform="matrix(1 0 0 1 1741 243 )" />
  </g>
</svg>