<?xml version="1.0" encoding="utf-8"?>
<svg version="1.1" xmlns:xlink="http://www.w3.org/1999/xlink" width="80px" height="35px" xmlns="http://www.w3.org/2000/svg">
  <g transform="matrix(1 0 0 1 -999 -454 )">
    <path d="M 999.5 459  A 4.5 4.5 0 0 1 1004 454.5 L 1074 454.5  A 4.5 4.5 0 0 1 1078.5 459 L 1078.5 484  A 4.5 4.5 0 0 1 1074 488.5 L 1004 488.5  A 4.5 4.5 0 0 1 999.5 484 L 999.5 459  Z " fill-rule="nonzero" fill="#f9f9f9" stroke="none" fill-opacity="0" />
    <path d="M 999.5 459  A 4.5 4.5 0 0 1 1004 454.5 L 1074 454.5  A 4.5 4.5 0 0 1 1078.5 459 L 1078.5 484  A 4.5 4.5 0 0 1 1074 488.5 L 1004 488.5  A 4.5 4.5 0 0 1 999.5 484 L 999.5 459  Z " stroke-width="1" stroke="#e4e4e4" fill="none" />
  </g>
</svg>