<?xml version="1.0" encoding="utf-8"?>
<svg version="1.1" xmlns:xlink="http://www.w3.org/1999/xlink" width="16px" height="16px" viewBox="84 158.5  16 16" xmlns="http://www.w3.org/2000/svg">
  <path d="M 92 158.5  C 96.48 158.5  100 162.02  100 166.5  C 100 170.98  96.48 174.5  92 174.5  C 87.52 174.5  84 170.98  84 166.5  C 84 162.02  87.52 158.5  92 158.5  Z " fill-rule="nonzero" fill="#f0f0f0" stroke="none" />
  <path d="M 92 159  C 96.2 159  99.5 162.3  99.5 166.5  C 99.5 170.7  96.2 174  92 174  C 87.8 174  84.5 170.7  84.5 166.5  C 84.5 162.3  87.8 159  92 159  Z " stroke-width="1" stroke="#8c8c8c" fill="none" />
  <path d="M 92 170.5  C 89.76 170.5  88 168.74  88 166.5  C 88 164.26  89.76 162.5  92 162.5  C 94.24 162.5  96 164.26  96 166.5  C 96 168.74  94.24 170.5  92 170.5  " fill-rule="nonzero" fill="#8c8c8c" stroke="none" />
</svg>