<?xml version="1.0" encoding="utf-8"?>
<svg version="1.1" xmlns:xlink="http://www.w3.org/1999/xlink" width="16px" height="16px" viewBox="196 848.5  16 16" xmlns="http://www.w3.org/2000/svg">
  <path d="M 204 848.5  C 208.48 848.5  212 852.02  212 856.5  C 212 860.98  208.48 864.5  204 864.5  C 199.52 864.5  196 860.98  196 856.5  C 196 852.02  199.52 848.5  204 848.5  Z " fill-rule="nonzero" fill="#f0f0f0" stroke="none" />
  <path d="M 204 849  C 208.2 849  211.5 852.3  211.5 856.5  C 211.5 860.7  208.2 864  204 864  C 199.8 864  196.5 860.7  196.5 856.5  C 196.5 852.3  199.8 849  204 849  Z " stroke-width="1" stroke="#8c8c8c" fill="none" />
  <path d="M 204 860.5  C 201.76 860.5  200 858.74  200 856.5  C 200 854.26  201.76 852.5  204 852.5  C 206.24 852.5  208 854.26  208 856.5  C 208 858.74  206.24 860.5  204 860.5  " fill-rule="nonzero" fill="#8c8c8c" stroke="none" />
</svg>