<?xml version="1.0" encoding="utf-8"?>
<svg version="1.1" xmlns:xlink="http://www.w3.org/1999/xlink" width="16px" height="16px" viewBox="84 848.5  16 16" xmlns="http://www.w3.org/2000/svg">
  <path d="M 92 848.5  C 96.48 848.5  100 852.02  100 856.5  C 100 860.98  96.48 864.5  92 864.5  C 87.52 864.5  84 860.98  84 856.5  C 84 852.02  87.52 848.5  92 848.5  Z " fill-rule="nonzero" fill="#f0f0f0" stroke="none" />
  <path d="M 92 849  C 96.2 849  99.5 852.3  99.5 856.5  C 99.5 860.7  96.2 864  92 864  C 87.8 864  84.5 860.7  84.5 856.5  C 84.5 852.3  87.8 849  92 849  Z " stroke-width="1" stroke="#8c8c8c" fill="none" />
  <path d="M 92 860.5  C 89.76 860.5  88 858.74  88 856.5  C 88 854.26  89.76 852.5  92 852.5  C 94.24 852.5  96 854.26  96 856.5  C 96 858.74  94.24 860.5  92 860.5  " fill-rule="nonzero" fill="#8c8c8c" stroke="none" />
</svg>