<?xml version="1.0" encoding="utf-8"?>
<svg version="1.1" xmlns:xlink="http://www.w3.org/1999/xlink" width="16px" height="16px" viewBox="196 158.5  16 16" xmlns="http://www.w3.org/2000/svg">
  <path d="M 204 158.5  C 208.48 158.5  212 162.02  212 166.5  C 212 170.98  208.48 174.5  204 174.5  C 199.52 174.5  196 170.98  196 166.5  C 196 162.02  199.52 158.5  204 158.5  Z " fill-rule="nonzero" fill="#ffffff" stroke="none" />
  <path d="M 204 159  C 208.2 159  211.5 162.3  211.5 166.5  C 211.5 170.7  208.2 174  204 174  C 199.8 174  196.5 170.7  196.5 166.5  C 196.5 162.3  199.8 159  204 159  Z " stroke-width="1" stroke="#8c8c8c" fill="none" />
  <path d="M 204 170.5  C 201.76 170.5  200 168.74  200 166.5  C 200 164.26  201.76 162.5  204 162.5  C 206.24 162.5  208 164.26  208 166.5  C 208 168.74  206.24 170.5  204 170.5  " fill-rule="nonzero" fill="#8c8c8c" stroke="none" />
</svg>