<?xml version="1.0" encoding="utf-8"?>
<svg version="1.1" xmlns:xlink="http://www.w3.org/1999/xlink" width="14px" height="14px" xmlns="http://www.w3.org/2000/svg">
  <g transform="matrix(1 0 0 1 -1700 -52 )">
    <path d="M 1707 53  C 1710.36 53  1713 55.64  1713 59  C 1713 62.36  1710.36 65  1707 65  C 1703.64 65  1701 62.36  1701 59  C 1701 55.64  1703.64 53  1707 53  Z " fill-rule="nonzero" fill="#0d0d51" stroke="none" />
    <path d="M 1707 53  C 1710.36 53  1713 55.64  1713 59  C 1713 62.36  1710.36 65  1707 65  C 1703.64 65  1701 62.36  1701 59  C 1701 55.64  1703.64 53  1707 53  Z " stroke-width="2" stroke="#ffffff" fill="none" />
  </g>
</svg>